<mxfile host="app.diagrams.net" modified="2024-04-09T14:55:41.098Z" agent="Mozilla/5.0 (X11; Linux x86_64) AppleWebKit/537.36 (KHTML, like Gecko) Chrome/123.0.0.0 Safari/537.36" etag="BpR0BYfH30zJT7F1_A_k" version="24.2.3" type="device">
  <diagram name="Page-1" id="Q9ejQmU7z-yHVO4sZvQq">
    <mxGraphModel dx="1341" dy="929" grid="0" gridSize="10" guides="1" tooltips="1" connect="1" arrows="1" fold="1" page="0" pageScale="1" pageWidth="850" pageHeight="1100" background="none" math="0" shadow="0">
      <root>
        <mxCell id="0" />
        <mxCell id="1" parent="0" />
        <mxCell id="zrMExZ_hn0nJ5K-dxhJw-85" value="" style="rounded=1;whiteSpace=wrap;html=1;fillColor=none;dashed=1;dashPattern=8 8;fontSize=10;" vertex="1" parent="1">
          <mxGeometry x="-147.30111524163567" y="180.4413680781759" width="352.9423791821562" height="277.13843648208467" as="geometry" />
        </mxCell>
        <mxCell id="zrMExZ_hn0nJ5K-dxhJw-3" style="edgeStyle=orthogonalEdgeStyle;rounded=0;orthogonalLoop=1;jettySize=auto;html=1;exitX=1;exitY=0.5;exitDx=0;exitDy=0;startArrow=classic;startFill=1;fontSize=10;" edge="1" parent="1" source="zrMExZ_hn0nJ5K-dxhJw-1">
          <mxGeometry relative="1" as="geometry">
            <mxPoint x="178.92007434944242" y="-166.24918566775244" as="targetPoint" />
          </mxGeometry>
        </mxCell>
        <mxCell id="zrMExZ_hn0nJ5K-dxhJw-9" style="edgeStyle=orthogonalEdgeStyle;rounded=0;orthogonalLoop=1;jettySize=auto;html=1;exitX=0;exitY=0.5;exitDx=0;exitDy=0;startArrow=classic;startFill=1;endArrow=none;endFill=0;fontSize=10;" edge="1" parent="1" source="zrMExZ_hn0nJ5K-dxhJw-1" target="zrMExZ_hn0nJ5K-dxhJw-8">
          <mxGeometry relative="1" as="geometry" />
        </mxCell>
        <mxCell id="zrMExZ_hn0nJ5K-dxhJw-1" value="" style="shape=image;verticalLabelPosition=bottom;labelBackgroundColor=none;verticalAlign=top;aspect=fixed;imageAspect=0;image=data:image/png,iVBORw0KGgoAAAANSUhEUgAAASAAAACvCAMAAABqzPMLAAAAn1BMVEX///9JmEjy8vLs7Ozv7+/q6urn5+fl5eVGl0VBlUA6kjk9kzxElkM8kzv29vY1kDQxjzBOm03w9vDO4c7I3cjg7ODq8ur2+vZXn1atza1coVu51Lmjx6Nwq2/u9e6QvI+20rZqqGnV5dV/s3+awpqGt4ZipGFsqWuTvpOfxZ93r3fa4drM2MyxyrEiiiHK3smiwaLC08Gdvp3U3tS2zLbseasdAAANOklEQVR4nO1d6UKrOBSWtnohgKG1+2btZq066tz7/s82QKslOSckKQQyzHz/tLSQj7PnJLm5AZjttw8j+O//8YPe81/RfjJQvPrB6LNYig+H+HQ8Hypc2vtrr0plozCnnutH05VU13rUpZt1FY9kGXqbyHVcn24k8jGijhPQ7n/RbA321E0Gv5/lXhY5MVyPRN3NfLYe/qd46ndJQlEYHnJ0iDhnuIEXEkqp53TH4/3++bg7zFf9Qa+6560Bs5QixyN0sVril3Rdh4ebIgg83ycxZdPNvK9i7/+d6I9pykAQm+wJNsw9JIjnK/AJ9Y6rppL0MCUnDmKTjXC0CGQEnRD4tDup4/krQD/wvoXBj0NIVtc2igSl3yZNpSjx+ReOnrLhkQZBMci+oW7uoRtmJSHm6Ns7HbUIijWtqYH3hPiMtsS6ltojqY3m4EZNzd5GL9RjRhpb3UN/54mYECLq1z0UUxhtWYriADrU5ydmqLm52+gQXcMIYKipdihGbxfpWWUMrtdQX5ZieIx0DTNAMK17FEZxyvMLwd/VPQiz6Du+nIRc0Pwiyr8fc1rQFNGm5q7fWD6FchZy4DbbDCV4oYUYCrd1D8A4DsViogbHi2esiZyFHLjdugdgGoNiBDl+05VsUMwINTvlSFBUghx3XPcQzKKgDYoRNrUEe8JHYYIc2uhps1nRfCPOWo91D8Ik5sUJchpbgE1QMFBM0Wg7rTfjI0CT7bTmjI8ApLnVxafClcUEXnNrZ/K+BSU0N54uiaDm2ulxOQQ5/kvdIzGEaUkENbYyVJKKNXeerBwvliDY1z0WI3hGCQpoSIluhOQ3MidDA0X/OLy5WS90E/3wumhotBysP2az1WQyn0xWs/7aqskkLNXwzqIwiXQZ0pKh0aA/eTyOk7ZjQkL/jDAkNBo/fpgY7DV4hMmqG3x/ONNlyJ+q1YaGH/OjE9HQ9wJUxV2PkJ0dbvEFEkQuzVFb3WKIS2TT0YP+y8KjxMeZycCjYxumtieAAmYmRz+OJHvRm1+uJ7tprE6eqvV3SVB/mWAGJp/D7Htb6096uHTMd2IPH1aPT4nYeJp8u2FQtxQ9AFdFmM/3V5RDks7H3WT2sI6dU2yGu/QKan5+i4zrrVcOeRHxHpnPoYSpjSvwQ0IS5yQwwxo/RY+1zgrwBHGFi5GuIzOAIKrTFHErfVw+YSgr3S8EMq0veOSapCkfoSGBUg1w6xOiB0bHgADdrEqYFyoD5LmuasExKyKwdFp8brokBF5NofXIvVgZCuuCy6LtH6WhNjXrOd8yRLF03BYJikE2lZNzwi7yPS/OD1fYh1a4sTP8aU2GaDh53L0IFvCUM7VYEoLAqmJRijJm78uDS63rlID5fr2I6k5feVyZjZlDrYkHApjv1w3LGCrc5lk+7FoQCgoiFsCqXomRhQS5bt2sZGGfilnWkGSbF0thU+OoRanGBTatokF2F7IAFjWO2kmQQ61pt7Epnc+Am36pEZYS5ES2JPaWqpg9a0QcSwmyJp62qh6URfBcNzUpbEw1zqBWtBDZmKye4T7VTU4CaybGEFghQtZVFDOwQoTm1hppxw5HtrNp2oeHBbHQymIT5FgQTh/s9WEp6q6cHa2SH8waRnUm9aOpVQY63DrQHvrz+vgZBlbZ54QKpLLg18bPQ+F98spF0p88gkFZWNdU9MqC/tYsTgWyPnAadS2Xtc59ndMKuAKwnnzDLveVwDs92AAIdh3BomXuK8FPwAMbuqLKO/GHrlXuK8WPLYabilXu6QfELveV4rLrJ1xmG+SNpnw8WOa+TriEO8gCpUrbYbTXYVaCbOUHzCIEiwr5sS38OSM7TQi7JivM6S3lx/EzU/E98IxeZWbaVn4cf5V5SnjUTlVm2k77k4AhqA/NdDXtQnb6rxQes2csICioZBWHxTNg3N7ecJVfJXWz65ffVhBYRtkDreBqdUYFDeH56vzL3QfJ/hu+73lBkJxsV4wLFGw+ATpOKtg9fnJ9/k7jry8H/dVk+7g5Pu/HXSddFU4hTgvFr7kH2/kLQyFqeoZsKDXQricamqgbbvSD5XI5HA4Hg/W6P5tfV0phKodIKGR6EzXJXl1BSMe77SZAl/7otgtetfzDdbI/AUIh073lsJSZvbkfLWanoguqiNobJoub1nKOqmLODoShkOHCYk6fXUC7kwsD2J5eRFf/hYv0/HVOqZfZEBWIstmmTvhCfu4bHZlXg21A7etOLPQFHSOJqxIf9cFQsAUch8VpEENggVyfbLnDa7FTArTnf0UhaeqKtsKXle3lgE6FGNzWS+DCQmyDI+xS7VxRQNCpKrYTLQJlgh1gpk2mG+i6VA+PTrGwWTsIwXuvvzfGEIas2YXrD4Bkg7332FG9kcDoLZCxaZfN8X2+g29VFfauZ/0luMg3t3wDar0rLCBg28Foz25CE5vgJ9jricxQtrgKHIu5UAixmb6wiImqo+5JY/ha84sIrEVxPc3U54EIGSvew8M1cvb2RV20ro7hnaGZbGIiMONZKQEsGstYwR5BeUcaoS5aV8fwZCPMSMBGYKizr+LA02xqWwZwuEZuzw2ejun5Mbz5mrF7XYXMeME9C9wfqhzwkX++O8D3x9XTMfxQKoYgUTDpHTIXLTgZMiRCvGPKDyjQTbs015DioyeM5fsQGGqmV+GR/SFDVojb6E0SkuJht56O9RQIunnBnT1bv5+xpw6byek5CZLVd9F98D2to+qUCGK3V8uQwAj4cpGlyExbMGeDZJNM+MZ4WvkYThCQwjFqqHkTud4QmpbDg8AjRlZvvOgRhK8g0xJu3AYBgkboFrBIxLxevew2x+Nm97IEn5UALq6VlnfQzSe1Cla4F4PxOGy4U3mDpYOLa6XmBDfTOgUrPFBESrd9tLpSdVcilz3IfeUOEyGd94qnGhS5Es05ql5/wMe1kUyR4ayLo+dA0IPx8BdzQIStinnULHiTKS+szDEJILJvXYBaMYLfdgfvZSqlEIF3SwphMTYLolFtwA6ECUQJ7xGKW9Wdv7wUy4eKFWw0isJY0c0VGpYjkKGqdYwvPSlULw6IFVHWMSySyqu5AS2r2o+BErH0eAy0bqw88YKEQfk72wGGMIdnENCphFJHiuyjrKxjsCopc4F8/YxP2wwDxm2BPKdByhGq7xWWpKXL4rgMuerlBzDW8KZSLYPlCFU/BgJNuUpz0XvVWwpgZyDRhUzNQDkiUIwV+ZlulXIbN1NUsRFaoqGxJyuCgWY7RT+mH1YAz2e8o4zDHMseXdnWxGD6Vy0f4+072xslAutqK1+qukCrd5GksY0v4KvlY7xPUJszZhNcpnZfCfBFhlF+aAMCGk/lVrwTU+s6YDPGGjZ+QRmSvVw+qVKqK3IuQTUsZuWu4lV0CZ6Q7EG20Igv7CjV7rmYRjU4YL9Wx54UGxgvyl4uKASo2FvuNqopHGvwqnZjKbaSw7QQ8CmZwnNz5SflBIXVTJMdd2Jw66F8eSGeD4oVcgCumUTZYbOhonbnaDlYZ1c8uwqGkPdICpUS7ivKxoRNqeva9qU3vjyGygngoPwu76VihU59Op0lVm8qt0xsvk0EVYnfQOUiXMm+wnoj9YFyBNW3G/AsSkegdnQzIEhupVkTpD5bxE55qybGJjCcEuWzqngVkyfmXCam3rzLEVTXWVrnZ4kkNvD+BFCM9Lb3ebjhMzGNxiKOoJp2CDwPpNW5b7VanRjtBLcx7jDc8tsskrf0/7+EuPvkNKV9F/94fI/4XvEtL0QCVC5BZyoSHr5J+AH3J4qEiA5oFmqjRGYoZeM9/zOHzJjOu+RZYupizlaMNhuwQWc+zkKhByFLXOztPUoJYtv6yVcuQVl8mvBiBThRIar9xdlo8oWr4gVtdlKWvv58IuGH003vcPrvbTsRL1QnZbx0JCiBqg4oZncy+oeDS1URiRMQ9M4S9Dd/3V1KlZwZKTElUtXh6PG2nVsAVsN+s07smKOSuQT57yKRi4lCeTpT07rAPFNvnDjQ33nGPSXoi/mKd5Cp5A9XHEGhzHi1W/cMObnQp0qJqw43F+PuW6cPxCS1eTlQIygBa+/IbwXrfts60ZPPjjmiWlw1yH/nL4cEfbJVnTd1glhxJb/U3F/75kaZnqJkAQF65Z18HpsngjihI98UqqgZe7fMV3IZutMQoJKZ6rDqEpvollwrf/pmXNfzo3eZUc+gnV2q6T5h1h0jqKWlY6Uy1eI70G/llqvzpxsQSkPPmS4eP18RfoRM3b52aej7YUhiRHnuL0NVR9VMm+Cq9RllbRD5lAtQzFAatibe9iKK8rzmxFD77c/7+5+vr7ffr6+/5Pzctu55R18uS1KmWpMpJeFpFUBA9q2s/l0HKVNtBaOVhEI8N6Z5ElDVur99e58fdpvNZjeBHxvlCuXmVhAkioiqgKl8BksgKoeqCy0qWYaMKxNs5SpgyVQBXUuLIIVoyWWrXL60mdKg6sxHatiF1TTDyFZFC/GkylQOH8nHyW9lqrTWI7fMrEOpsFBtEv8AKx4naJiyZ7wAAAAASUVORK5CYII=;rounded=0;fontSize=10;" vertex="1" parent="1">
          <mxGeometry x="-19.340018587360532" y="-193" width="86.90198998317759" height="52.80227851693862" as="geometry" />
        </mxCell>
        <mxCell id="zrMExZ_hn0nJ5K-dxhJw-2" value="" style="image;aspect=fixed;html=1;points=[];align=center;fontSize=10;image=img/lib/mscae/Cache_Redis_Product.svg;rounded=0;labelBackgroundColor=none;" vertex="1" parent="1">
          <mxGeometry x="183.37360594795547" y="-188.7198697068404" width="52.80227851693862" height="44.35391395422843" as="geometry" />
        </mxCell>
        <mxCell id="zrMExZ_hn0nJ5K-dxhJw-4" value="R/W Cache" style="text;html=1;align=center;verticalAlign=middle;whiteSpace=wrap;rounded=0;fontSize=10;" vertex="1" parent="1">
          <mxGeometry x="93.74628252788114" y="-188.7198697068404" width="66.80297397769519" height="32.100977198697066" as="geometry" />
        </mxCell>
        <mxCell id="zrMExZ_hn0nJ5K-dxhJw-8" value="" style="sketch=0;outlineConnect=0;fontColor=#232F3E;gradientColor=none;fillColor=#232F3D;strokeColor=none;dashed=0;verticalLabelPosition=bottom;verticalAlign=top;align=center;html=1;fontSize=10;fontStyle=0;aspect=fixed;pointerEvents=1;shape=mxgraph.aws4.user;" vertex="1" parent="1">
          <mxGeometry x="-138.39405204460962" y="-184.43973941368077" width="35.905549391518264" height="35.905549391518264" as="geometry" />
        </mxCell>
        <mxCell id="zrMExZ_hn0nJ5K-dxhJw-10" value="HTTP" style="text;html=1;align=center;verticalAlign=middle;whiteSpace=wrap;rounded=0;fontSize=10;" vertex="1" parent="1">
          <mxGeometry x="-100.53903345724905" y="-188.7198697068404" width="66.80297397769519" height="32.100977198697066" as="geometry" />
        </mxCell>
        <mxCell id="zrMExZ_hn0nJ5K-dxhJw-20" style="edgeStyle=orthogonalEdgeStyle;rounded=0;orthogonalLoop=1;jettySize=auto;html=1;exitX=1;exitY=0.5;exitDx=0;exitDy=0;startArrow=classic;startFill=1;endArrow=none;endFill=0;fontSize=10;" edge="1" parent="1" source="zrMExZ_hn0nJ5K-dxhJw-11">
          <mxGeometry relative="1" as="geometry">
            <mxPoint x="211.20817843866183" y="-140.56840390879478" as="targetPoint" />
            <Array as="points">
              <mxPoint x="211.20817843866183" y="-62.45602605863192" />
              <mxPoint x="211.20817843866183" y="-140.56840390879478" />
            </Array>
          </mxGeometry>
        </mxCell>
        <mxCell id="zrMExZ_hn0nJ5K-dxhJw-11" value="" style="shape=image;verticalLabelPosition=bottom;labelBackgroundColor=none;verticalAlign=top;aspect=fixed;imageAspect=0;image=data:image/png,iVBORw0KGgoAAAANSUhEUgAAAgAAAAIACAYAAAD0eNT6AAAAGXRFWHRTb2Z0d2FyZQBBZG9iZSBJbWFnZVJlYWR5ccllPAAAAyhpVFh0WE1MOmNvbS5hZG9iZS54bXAAAAAAADw/eHBhY2tldCBiZWdpbj0i77u/IiBpZD0iVzVNME1wQ2VoaUh6cmVTek5UY3prYzlkIj8+IDx4OnhtcG1ldGEgeG1sbnM6eD0iYWRvYmU6bnM6bWV0YS8iIHg6eG1wdGs9IkFkb2JlIFhNUCBDb3JlIDUuNi1jMTExIDc5LjE1ODMyNSwgMjAxNS8wOS8xMC0wMToxMDoyMCAgICAgICAgIj4gPHJkZjpSREYgeG1sbnM6cmRmPSJodHRwOi8vd3d3LnczLm9yZy8xOTk5LzAyLzIyLXJkZi1zeW50YXgtbnMjIj4gPHJkZjpEZXNjcmlwdGlvbiByZGY6YWJvdXQ9IiIgeG1sbnM6eG1wPSJodHRwOi8vbnMuYWRvYmUuY29tL3hhcC8xLjAvIiB4bWxuczp4bXBNTT0iaHR0cDovL25zLmFkb2JlLmNvbS94YXAvMS4wL21tLyIgeG1sbnM6c3RSZWY9Imh0dHA6Ly9ucy5hZG9iZS5jb20veGFwLzEuMC9zVHlwZS9SZXNvdXJjZVJlZiMiIHhtcDpDcmVhdG9yVG9vbD0iQWRvYmUgUGhvdG9zaG9wIENDIDIwMTUgKE1hY2ludG9zaCkiIHhtcE1NOkluc3RhbmNlSUQ9InhtcC5paWQ6Q0ExNUQ3RkQ5QTRDMTFFNkI3QTVBNUM4NjYyNkU4NTQiIHhtcE1NOkRvY3VtZW50SUQ9InhtcC5kaWQ6Q0ExNUQ3RkU5QTRDMTFFNkI3QTVBNUM4NjYyNkU4NTQiPiA8eG1wTU06RGVyaXZlZEZyb20gc3RSZWY6aW5zdGFuY2VJRD0ieG1wLmlpZDpDQTE1RDdGQjlBNEMxMUU2QjdBNUE1Qzg2NjI2RTg1NCIgc3RSZWY6ZG9jdW1lbnRJRD0ieG1wLmRpZDpDQTE1RDdGQzlBNEMxMUU2QjdBNUE1Qzg2NjI2RTg1NCIvPiA8L3JkZjpEZXNjcmlwdGlvbj4gPC9yZGY6UkRGPiA8L3g6eG1wbWV0YT4gPD94cGFja2V0IGVuZD0iciI/PuTO0+EAAB5ASURBVHja7N0LcF13fSfwc9+60rWefr8jhyTGMUkGCBTCFsKr426XQmHbxCosxWUDw27pwHZISqGwLZuFsGRKZza0AVrWhU4ZxzTTZmhnmZB1ePVNHJMQYk8ICSEhL8ey9bqP/R9Zoia1FUmRpavz/3yYX64sy1jn9/fV/3v+55VrtVoJABCXnAAAAAIAACAAAAACAAAgAAAAAgAAIAAAAAIAACAAAAACAAAgAAAAAgAAIAAAAAIAACAAAAACAAAgAAAAAgAACAAAgAAAAAgAAIAAAAAIAACAAAAACAAAgAAAAAgAAIAAAAAIAACAAAAACAAAgAAAAAgAAIAAAAAIAAAgAAAAAgAAIAAAAAIAACAAAAACAAAgAAAAAgAAIAAAAAIAACAAAAACAAAgAAAAAgAAIAAAAAIAACAAAIAAAAAIAACAAAAACAAAgAAAAAgAAIAAAAAIAACAAAAACAAAgAAAAAgAAIAAAAAIAACAAAAACAAAgAAAAAKALgCAAAAACAAAgAAAAAgAAIAAAAAIAACAAAAACAAAgAAAAAgAAIAAAAAIAACAAAAACAAAgAAAAAgAACAACAAAIAAAAAIAACAAAAACAAAgAAAAAgAAIAAAAAIAACAAAAACAAAgAAAAAgAAIAAAAAIAACAAAAACAAAgAACAAAAACAAAgAAAAAgAAIAAAAAIAACAAAAACAAAgAAAAAgAAIAAAAAIAACAAAAACAAAgAAAAAgAAIAAAAACAAAgAAAAAgAAIAAAAAIAACAAAAACAAAgAAAAAgAAIAAAAAIAACAAAAACAAAgAAAAAgAAIAAAAAIAAAgAAIAAAAAIAACAAAAACAAAgAAAAAgAAIAAAAAIAACAAAAACAAAgAAAAAgAAIAAAAAIAADAMwSAXC6nE2fJLUf2FMLLhlBbQw2G2hxqTaj+UAOnVE86HqE6QlV0DmD5yueKSblQfbRc7HysUqwdDx9PFPLlfCFfKhVyxUoul++arCQpT03HK075441Qw6EeCnVPqLtC3R7qwLba0NGF+P4m534BYEEn+nNDPW+qdk5VOuEXdQggmxN9tdT9o2qp55FquadeKXTVCvni2jChd5+Fv64Z6rZQnwu1L4SBYwLA0kz4veHlZ0JdFuoloV4UqqozAFmVSyrFzrFaeeD7XZWBsbBnvzKfK6xbom8mXQm4IdR1IQg8KgCc3Qm/PDXZ7wr1mlAXJieX7AHIqFKhI1lRWfWD7o41J8rFrg25JFdrs2/xeKgPhbo+BIEJAWDhJv302PwvTU36rwxV0xWAbKuWeuq91fX3d5X7Owr50vpl8m0fCnVFCAEHBYD5T/rpyXmvD/WmqUnf8XuAzE/63a2e6voHw95+Vz5X6FummzEa6l0hBHxaAJj9pJ+ewPfaUG8P9fMmfYDsK+YrSdjTf6qvc0Mznyv2ZmjTrg11TQgCLQHgzBP/lvDy1lBvC7XR2wEg23Lhf12V/qS/c/OPq6WelUl2z+VKTxB855lCQDr3R7mnGyb+F4eX94R6Q6i8twRAtuVzhXRvvxkm/pFCvtQVPrUq45t8VagnQ119xjAUywpAmPTTif4/hHpvqJd6OwBkX7rM39e5sd5X3dDM5fLlCFuw53TnBERxCCBM/OnG/XKoD4Ta7u0AEMfEP9C1pdlbTS/Tz8W80pueGHjp068OyHQAmJr4Xxfqg6Eu9nYAiGHiL6fH95Pezg2NXJIr6Mik9BLBS069T0BmzwEIk396w57rQz3fuANkX3qMP534+zs3pUv96R6/yf9f7Qj17lAfO/WTmVoBCBN/et/9jyYnl/wBiEB3x9pkVW2wGfb+ndR9ZukdA7dO3zY4MysAYeJP78Gfnun435KTT9MDIOOqpe5kde05SUdp8kF6Jv+ZpVc+pCfBvy8zKwBh8r88vHwqOfkkPgAyLl3uX1kbTPqqGzRjbtIHCG1KnyK4rFcApp7G9/FQv2ZMASLZjS0PJGtXnJcUCxXNmLue5OTzbf5kMkgt08n/F8LL3SZ/gFj2+ovJuu7tycbenSb/Z+fN0x8sq0MAYeLvDC/XhXqHMQSIQ7XUMzn5p4/m5Vlrhuof7Np9dNkcAgiT/yXh5fOhLjB+ANmX3rd/oHZOMtC5KcnuLfsXXbry/7JQf7UsDgGEyf9d4eWbJn+AOKTL/Jv7LgmT/2aT/8K7bLLHbT7xp5f3pWf4/6rxAohDZ7k3Wd+9IynkS5pxdmxv6wAQJv/B8HJTqIuMFUAc+js3pTf1sdd/dp3XtgEgTP6vCC/7QvUZJ4Dsy+XyyboVFyQrOlZrxtm3ri0DQJj800sUbgxl7QcgAulS/4aeCyfP9mdR1NoqAEw9vS99ZO/vGhuAOJQL1WRD7/MmX1m8zNU2ASBM/uk38+lQbzEuAHHoKHUnG3t2Otlv8TXaIgCEyb8cXr4Q6g3GBCAOneW+ZEPPjsk7/LHohpc8AEzd2e+LoXYZD4A4dJX7J4/5pyf+sSQeWtIAMDX5/1WoVxgLgDjUKiuT9WHPP+cyv6V0T/qfJYlfJn8Akz9L5q4lCQBTx/y/aPIHiEd6zH9993NN/u3h9kUPAFNn+6cn/DnmDxCJ9Pr+9Gx/x/zbQvo0wAPpB4v2OOCp6/w/m7jUDyAalWIt2dx3sbP928et22pDl6dz/2LGsQ+Y/AHiUcxXko29O03+7eVz0x8sygrA1O19/1TfAeKQzxUmH+ebrgDQNo6G2rStNnRsUVYAph7sc6O+A8QiN3m2v8m/7dyQTv6LsgIw9Ujff0g81Q8gGqtr5yZ9nRs1or0cD7U1BIBH01+c1RWAMPmnT3a4yeQPEI/ujtUm//b0oenJf9rZPATwqVAX6TlAHCrFrmTNivM1ov0cCnX90z95Vg4BhL3/d4WXT+o5QBzSM/239j8/KXmsb7sZDXVp2Ps/eOonJ+f+hQ4AYfK/JLx8M1RZ3wHikJ70t6KySiPaz54w+X/66Z9c8AAwdY//fwx1gZ4DxKGnY22yttuP/TZ0bZj8rz7db5yNkwCvM/kDxCNd8l+94jka0X5uCHXNTF+wYCsAYe//F8LLzXoOEIf0wT7pzX46St2a0WZ7/unkH/b+W2f6ggU7BBAm/97wcneoNfoOEIf+zs3JqtqgRrSP9IS/d53umP/pAsBC3aD54yZ/gHiUC9VkZddWjWgf6aV+Vzz9bP+ZPOsVgLD3f3l4+YreA8RjU+/FSWe5VyOW3nCoD4e6Pkz+E7P9Q8/6EMDU3f7uCHWuMQCIQ091XbLWDX+WWvpgn/REv+uefoe/2QaAZ3sI4GqTP0A8CvlSsrq2TSOWRjPUbcnJR/ruO/XBPvMx7xWAsPe/Obx8N1SHMQGIw5oVz0l6qxs04uxqJCeX9h8KdU+ou0LdHupAmPSPLsRf8KxWAE4cGz7QmKib/AEiUa10Jz2r12vE/Pfevxfq4NTrfaHuD/XYVD0+9XWjYZIfXYxvaF4BYP+hoV8fHxndbDwB4rFp9c7Ja/+ZlXQSv22qvhbq78PEPtJO3+CcDwHccmRP7sRTx55q1Bs14wsQh57a2uQ5G1+sETN7It1HDrUv1K3tNuGfal6HAMZOjHzY5A8Qlw0rt2vCGebSUF8Old585+a5XIq3rFYA9h8aytfHJ4abjYbnPQJEonfFuuTcDS/SiJ92PNRnQ30iTPpHll1qmfMKQKv1UZM/QExyYe//udrw0xP/HybzvP5+Wa4A3Hz3WwpjI6Pp3r8z/wEi0d+9MRlc/wKNOLnU/8ehfidM/I8s+42ZywpAo17/gMkfIC5rBzzqN/hWqKvCxP8vWdqo/Gy/sD5Rf7d/AwDx6O5alXRWemJuwYlQ6dz3kqxN/qlZrQDsv3P3W8dHxzzwGSAia/qjvtP7P4baHSb+72Z1A2e1AtBoNH7XWwEgHpN3/euK9invnwz1M1me/Ge1AvClQ0OXjrnrH0Bce/99UT7wJ71736+HiX9vDBv7jAEg7P1f660AEI9Cvpj0d0f3wJ/0kr7Xhcn/67Fs8IyXAf7lXW8uhb3/kVazWfCWAIjDqt6tyZa1F8e0yfeFenWY/O+NZYOf8TLAsPd/tckfIC4re7fEtLmHQ708TP4PxDbOM54E2Gw03u6tABCP9LK/ro4+k3/MAeBL3xna2qg3Nng7AMRjoGdTLJv6YKhXxjr5zxgAmo3mB5NWy7sBICJ9K6LY73sq1K4w+X8/5rGeIQA0/r23AkA8uqr9SbmU+ee9NUP9xzD53xH7eJ82AOw/NHRuo95Y6e0AEI/+Fetj2MxrwuT/N0b7DAGg1Wz+jtYARBYAujdmfRP3h/qokZ4hADQbzddoDUA8Ojt6klIx0w98/WGoPWHv38ltZwoA+w8N1ZqNxhqtAYhHBPf9f0uY/B830jMEgFazdVWr1cppDYAAkBGfCZP//zXKzxQAWs1f1haAeBQKpaSrsz+rm/dIqPcY5VkEgGajuUNbAOLR3bkyySWZXfj97bD3/6RRfoYAsP/Ooa3NRqOqLQDxqFUze9X3v4T6jBGeRQBotZpv1RKAyAJAdpf/rw57/00jPKsA0Hq1lgBENAnkC0lnpTeLm/atMPl/2QjPNgA0m9u1BCAe6ZP/crlMHv//PaM7ywCw/9BQudlo9moJQEQBoJrJ5f/vhvprozvbFYBW65UtT/8DiEpnpTuLm/UH7vg3hwAQJv/XagdAXKqVnqxt0kioPzOycwsAL9QOgHjkcvmko1LL2mZ9Mez9HzW6cwkAzdagdgDEtPe/Ios3APqCkZ1zAGgOaAdATAEgc8f/nwj1FSM7hwBw08ErO5rNZkk7AOJRKXVlbZNu2VYbmjCyc1kByOUu1QqAuJRLnVnbJDf+mXMAaCXP1wqA2FYAMhcAPPJ3zgEgaXkCIIAVgOXs3m21oR8Z1TkGgFbLFQAA8QWATD389etGdD4rAK1klVYAxKNYKGftEsB/NqrzWwHo0QqAuAJAxnzbqM4vANS0AkAAWMa+Y1TnEQBCBOjQCgABYJka2VYbetiozmsFIHETIAABYLn6vhGd7wpAq1XQCoB4FPKZ2u/7oRGd9wpAK6cVABHJ1k/9xwzofFcAAIhr/s9l6sf/E0ZUAABgNj/8c5k68jtiRAUAAGAWiul/an3uAwQQk3LV1d8CQJIeC3IOIEBM/NRn+hDAmFYAxKPZamZpczqN6PwDwKhWAMSjlWQqAPQa0fkHAABYrga0YP4B4EmtAIhHs1nP0uasN6LzDwDuogQQkUZrIkubs8WICgAAzCYAZGsFoHp4eO9aoyoAAPCMAWAia5u03ajOLwA8rhUAEQWAVuYCwEVGdX4B4GGtAIhtBaCVpU26xKjOLwDcrxUAcZloZOoecC8xovMLAEe0AiC2AJCpe8Cd60TA+QWA+7QCILIA0MzcTWBfZVTnHgAeDFXXDgArAMvYzxnVOQaAXYM3NhLnAQBEFgBGsrZJuw4P7y0Z2bmtAKQOagdAPMbqx7O2SX2hXmlkBQAAZjDeOJFk7FLA1BVGdu4B4A7tAIhHq9VMxuonsrZZbzo8vLfH6AoAAMy0CpC9wwDVULuN7NwCwL2hRrQEIB6j9eEsbtZ/PTy8N2d0ZxkApq4E+JaWAEQUACaeyuJmnR/q543u7FcAUl/XEoCYVgCOJa3snQiYer/RnVsAuF1LAOLRbDWSsYljWdy0Fx0e3uvGQHMIAN9IkmxGQQBObySbhwFS/yOEgLwRnkUA2DV445Ph5U5tAYjHiYkns7ppF4d6mxGe3QpA6m+1BSCiADCeBoDMLv7+3uHhvb1GeXYB4BZtAYhHs1XP8mGA1aE+bpRnFwDSEwGHtQYgHsfHHsvy5v3a4eG9HhX8TAFg1+CN4+HlK1oDEI/h8cezvol/GkLAgJGeeQUg5TAAQETG6sNJvTmW5U1cH+qP3SHwmQPAvlB17QGIx7HRR7K+ia8P9VtGeoYAsGvwxvRgkMMAADEFgLEfx7CZHzk8vPe1RvvMKwCpL2oPQDzSKwHqjbGsb2Y67/1FCAHPEwDObH/iMABAZKsAj8Swmd2hbgkhYIsAcBq7Bm9MTwn9a28HgHgcHX04lk3dEOorIQRsFABO74+8HQDikV4NMJrNhwOdzrZQX401BDxTAPibUA94SwDE48nRH8a0uWkIOBBCwLkCwCl2Dd7YCC+f9nYAiEd6OWD6mOCIbA31jRACXiIA/LTPhGp6SwDEIZ38I7gnwNOtTE6eEzAUywbnWq1WksvNfGOkW47sSS8JfKO3BUAcKsWuZGv/C2Pd/E+Ges+22tBEVjcwnfvzs/xaT1ICiMhY/XhyPPvPBziT/5KcPCRwfvQrAFOrAOlTAl/qbQEQh85yX7Kp96KYW3Ai1DXpisC22lCmDoXPZQUgdZ23A0BEs9/4E5OXBcacgUJdH+rrh4f3Xpy1jZtLALg51F3eEgDxeOzE/ZqQJC8K9U8hBHwq1OqsbNSsDwGkbjmy51fCyxf8WwCIRS7Z2v+CyZMCmXQ81B+Gum5bbejR5boRk3P/HANA+oX/FOpi/wYA4lCrrEw29FyoEf82CHw21CdCEDiS+QAwFQJ+MTn5oCAAInFyFaCmEaeZS0N9OTl507ybl8ulg/MNAOkX/32o5xt3gFhWAQaSDT07NWJmT0ztIO8LdWsIAyOZCgBTIeCy8HLAWAPEI70kML00kFkZDXXbVH0t3XFup0Aw7wAwGQIOv+0vWknyJmMMEIf0RMBzBtK7A+Y0Y+7S+wh8L9TBqdf7QqWXWDw2VenqQXo4YTQEhdG2DgD7Dw29eGJ07BvpnwcgDpvXXJSs7jtHI86u9ElM6Q0YHgp1T3LyEvz0ZnwHQjg4uuQBIHXTwSu/MjE2frmxAohDsVBOdg6+OikUSpqxNKsI6SGFz4XaF8LAsSULAH9515t7xkdGH2k2m2XjAhCHlb1bkq1rL9GIpZWuBNyQzPN+BM86AKT237n7N8dHx/6XsQCIx/mbL0tWdK7UiKWXHir4cKjr53IJ4oIEgNS+b19xV31i4gLjABCHjnIt2XHO5WH+yGtGezgU6ooQAg7ONgAsyMgVioXX5PL5pv4DxGF0fDh58NG7NaJ97Aj1d4eH975ttn9gQVYAUvvv3P3+8dGx/24MAOKQzh0XbP53SVfVvQHazLWhrtlWG2rNtAKwYAEgte+OK+6oj0+4VRRAJCqlrmTHOa9I8vmiZrSX9ATBd54pBCzYIYBphULhFflCfkzfAeIwNnE8uf/hOzSi/VwV6iMzfcGCBoBf3LH3sWK5PJTk3CUKIBaPHr0/eeLYgxrRft430zkBC3oIYNpNB6/8/MTY+BV6DxCH9MZAz9368slDArSV9LbClz796oAFPwfgVPu+/Sv31ifq2/QeIA7VSneyfcvPJvl8QTPaS3qJ4CWn3idgwc8B+Kk0WCq+MF8ojOg7QBxGxp5K7vvRP2tE+0kvEXz30z951lYAUvsPDb1sYnTstvB3OCkAIBKb1uxM1vRZAG4zx0Ntnb5t8FldAUi9fsfeA6VK+Tf0HSAeDzx8Z3L0+MMa0V7SkzPeu2grANNuOnjl/54YG79K/wHiUMgXk/O3vCzprPRoRvtIHyC0KX2K4FlfAZj2hp2ff0exXLpV7wHi0GjWk3t/8I1kvD6qGe0jTWO/NP2LRXuKQ7XW9coQAtw4GiAS6eR/7wPfmAwDtI03T3+wKIcApu0/NFRu1OtHGhP1DcYAIA61an9y3uaXJvmcywPbQPrgvv7Brt1HF/U5jq/fsXe8UCxeEOoRYwAQh+GRx5Pv/eCbSavlobFtIJ33Xzb9waIKIWC4VCmFEFB4wjgAxOHYiR8nhx/8OyGgPVy2JAEg9brt/+eJQql0nhAAEI8nh38kBLSH7UsWAKZWAh4tVSqDDgcAxBUC7n3gW0mz1dCMpXPekgaAkysBn3uyUCpuC+UxUgCRSG8SlJ4T4OqAJbNuyQPA1ErAcKFYHCyWS981JgBxSM8JuOcHX0vqjXHNWHy1tggAUyFgvFrr2h5CwFeNC0Acjo88kdz9/f+XjI4Pa8bimrwec1HvAzAbNx288oaJsfH/bHwA4lAslJNzN74oqVUHNGNxNAa7dhfz7fZdvWHn568qd1R+I4SSljECyL70MMA99389efypBzRjcUwuueTb8Tt7/YV/9geljsrP5guFEeMEkH3pVQFHfvgPyQOP3Bl+Zf/vLHuobQPAZAjYsfdAsVzaVCgVjxgrgDj86PF7k+/en54cOKYZZ889bR0ApkLAY2+86M+3lSrlLyRtdJ4CAGfPsROPJt+576uTJwlyVtzV9gFg2ht2fv7KcqV8RT6fd70IQATGJ0aSu+8/kDz0WLqz6pDAArs9/U/bXQUwk/2HhlY2641b6xMTFxo/gDjUOgeSwXUvSMqlqmY8ez95GuCyCgA/CQJ37v7QxPjE+1vNZt5YAmRfoVBKtqy5KOnv3qgZz86t22pDl0/O/csxAEytBmxp1ht/W5+YOM94AsShp7YmBIGLrQbM31tDAPiTZR0Apt10cPd7GxMTH2k2myXjChDBakC+mGxY9dxkdd+gZszN0VCbQgA4lokAkPrSd361t1Fv7K9PTLw8aTlZBCAGXdX+ZPOanUlXR59mzM7/DJP/+9IPMhMApu2/c/dLGo3Gnzcm6puMM0AcBno2JRtX7UhKxQ7NOLPjobaGAPBoJgPAKUHgHfWJ+seajUaXMQfIvny+mKwbeE6ypv/cJJ8raMi/9Vth8v/Y9C8yGwBStxzZkxs9PvL7jfrEbzYbTbEQIALpKsDaEARW9W4VBP7VoVCXhAAwEUUAmLbvjisKYfs+0ajX3x6CQMW/A4DsKxerybqV5ycrezaHOS7qK8ZHQ10aJv+Dp34yigAw7ea731KoT9R/PwSBdzYbjRXeHgBxBIHV/YOTKwKFfJQXi+0Jk/+nn/7JqALAqfbfuXtPo974YAgD7igBEIH00sGVIQSs6dsW0z0Erg2T/9Wn+41oA8BPgsChoRc3G41rQxC4rNVsOVgEkHHpfNfTtWZyRSC9qVD4TFY39YZQ7wwBoCUAzLwiUAl9uKbZaO4JYWC9twhA9pWLHclA75Y0DDTKxWqWdgKvDXXNmSZ/AeDMqwKDrUbzQ81mY1ej3ujXEYDsS28q1N+9oTXQvXG8WKgs1xPG0xP+3nW6Y/4CwNxXBi4I/fntZqP5qmajsbblLoMAmVerDiR93evrfbV1Y+VS53K5n0x6qd8VTz/bXwBYmDDQHXr1jlBvDIHgwhAI3FsAIOPSEwZ7a2ubfSvWD3dVB8r5XL7dfvand/j7UKjrT73OXwA4u4HgnNC7/xTq1SEQbG81m71WCACyLJdUK7Wku2vVWHfX6uGujv5CsVDuXaJvJn2wT3qi33XTt/edCwFgIQPBoaFy6OirQj9fE+rSVrN1TggFA55SCJBdhUIp6erobXZVe493VfuPd5Z7klKxWgvzau0s/HXNULeF+lyofelT/eb7fyQALIKbDl7ZERp8adJKnh9aviP0ezB8vCq89oQK/0BaHWEISmE0CuHXBgIgC8EgX0wqla5mR3nFWEelNlIpdo6VipV6sVBphsqH3y/lc4WOJMmVklwSfvj/VGBohBoO9VCoe0LdFer2UAfCpH90Ib6/nwQAACAuAgAACAAAgAAAAAgAAIAAAAAIAACAAAAACAAAgAAAAAgAAIAAAAAIAACAAAAACAAAgAAAAAgAAIAAAAAIAAAgAAAAAgAAIAAAAAIAACAAAAACAAAgAAAAAgAAIAAAAAIAACAAAAACAAAgAAAAAgAAIAAAAAIAACAAAIAAAAAIAACAAAAACAAAgAAAAAgAAIAAAAAIAACAAAAACAAAgAAAAAgAAIAAAAAIAACAAAAACAAAgAAAAAIAACAAAAACAAAgAAAAAgAAIAAAAAIAACAAAAACAAAgAAAAAgAAIAAAAAIAACAAAAACAAAgAAAAAgAACAACAAAIAACAAAAACAAAgAAAAAgAAIAAAAAIAACAAAAACAAAgAAAAAgAAIAAAAAIAACAAAAACAAAgAAAAAgAACAAAAACAAAgAAAAAgAAIAAAAAIAACAAAAACAAAgAAAAAgAAIAAAAAIAACAAAAACAAAgAAAAAgAAIAAAgAAAAAgAAIAAAAAIAACAAAAACAAAgAAAAAgAAIAAAAAIAACAAAAACAAAgAAAAAgAAIAAAAAIAACAAAAAAgAAIAAAAAIAACAAAAACAAAgAAAAAgAAIAAAAAIAACAAAAACAAAgAAAAAgAAIAAAAAIAACAAAAACAAAIAACAAAAACAAAgAAAAAgAAIAAAAAIAACAAAAACAAAgAAAAAgAAIAAAAAIAACAAAAACAAAwAz+vwADAJ3WjsZxJ49mAAAAAElFTkSuQmCC;rounded=0;fontSize=10;clipPath=inset(28% 0.67% 28.67% 0%);" vertex="1" parent="1">
          <mxGeometry x="-48.21003717472115" y="-93.4869706840391" width="141.6579528052429" height="61.797093505642884" as="geometry" />
        </mxCell>
        <mxCell id="zrMExZ_hn0nJ5K-dxhJw-12" value="Worker" style="text;html=1;align=center;verticalAlign=middle;whiteSpace=wrap;rounded=0;fontSize=10;fontStyle=1" vertex="1" parent="1">
          <mxGeometry x="-13.706301115241558" y="-78.22830618892507" width="66.80297397769519" height="32.100977198697066" as="geometry" />
        </mxCell>
        <mxCell id="zrMExZ_hn0nJ5K-dxhJw-13" style="edgeStyle=orthogonalEdgeStyle;rounded=0;orthogonalLoop=1;jettySize=auto;html=1;exitX=0.726;exitY=0.987;exitDx=0;exitDy=0;entryX=0.651;entryY=-0.004;entryDx=0;entryDy=0;entryPerimeter=0;startArrow=classic;startFill=1;endArrow=none;endFill=0;fontSize=10;exitPerimeter=0;" edge="1" parent="1" source="zrMExZ_hn0nJ5K-dxhJw-1" target="zrMExZ_hn0nJ5K-dxhJw-11">
          <mxGeometry relative="1" as="geometry" />
        </mxCell>
        <mxCell id="zrMExZ_hn0nJ5K-dxhJw-17" value="Initiate Task" style="text;html=1;align=center;verticalAlign=middle;whiteSpace=wrap;rounded=0;fontSize=10;" vertex="1" parent="1">
          <mxGeometry x="-37.076208178438634" y="-135.21824104234528" width="40.0817843866171" height="32.100977198697066" as="geometry" />
        </mxCell>
        <mxCell id="zrMExZ_hn0nJ5K-dxhJw-18" value="Task&lt;div style=&quot;font-size: 10px;&quot;&gt;Results&lt;/div&gt;" style="text;html=1;align=center;verticalAlign=middle;whiteSpace=wrap;rounded=0;fontSize=10;" vertex="1" parent="1">
          <mxGeometry x="29.99500000000001" y="-135.21824104234528" width="66.80297397769519" height="32.100977198697066" as="geometry" />
        </mxCell>
        <mxCell id="zrMExZ_hn0nJ5K-dxhJw-19" style="edgeStyle=orthogonalEdgeStyle;rounded=0;orthogonalLoop=1;jettySize=auto;html=1;fontSize=10;" edge="1" parent="1">
          <mxGeometry relative="1" as="geometry">
            <mxPoint x="102.09665427509293" y="-77.43648208469055" as="sourcePoint" />
            <mxPoint x="195.4649442379183" y="-143.7785016286645" as="targetPoint" />
          </mxGeometry>
        </mxCell>
        <mxCell id="zrMExZ_hn0nJ5K-dxhJw-21" style="edgeStyle=orthogonalEdgeStyle;rounded=0;orthogonalLoop=1;jettySize=auto;html=1;exitX=1;exitY=0.75;exitDx=0;exitDy=0;entryX=0.776;entryY=0.997;entryDx=0;entryDy=0;entryPerimeter=0;fontSize=10;" edge="1" parent="1" source="zrMExZ_hn0nJ5K-dxhJw-11" target="zrMExZ_hn0nJ5K-dxhJw-2">
          <mxGeometry relative="1" as="geometry" />
        </mxCell>
        <mxCell id="zrMExZ_hn0nJ5K-dxhJw-22" value="Enqueue Task" style="text;html=1;align=center;verticalAlign=middle;whiteSpace=wrap;rounded=0;fontSize=10;" vertex="1" parent="1">
          <mxGeometry x="118.31864312267669" y="-100.9771986970684" width="83.50371747211898" height="32.100977198697066" as="geometry" />
        </mxCell>
        <mxCell id="zrMExZ_hn0nJ5K-dxhJw-23" value="Dequeue &amp;amp; Run Task" style="text;html=1;align=center;verticalAlign=middle;whiteSpace=wrap;rounded=0;fontSize=10;" vertex="1" parent="1">
          <mxGeometry x="101.1391449814127" y="-74.22638436482085" width="113.5650557620818" height="7.768436482084691" as="geometry" />
        </mxCell>
        <mxCell id="zrMExZ_hn0nJ5K-dxhJw-24" value="Store Results" style="text;html=1;align=center;verticalAlign=middle;whiteSpace=wrap;rounded=0;fontSize=10;" vertex="1" parent="1">
          <mxGeometry x="151.0855018587361" y="-59.24592833876221" width="79.05018587360595" height="9.63029315960912" as="geometry" />
        </mxCell>
        <mxCell id="zrMExZ_hn0nJ5K-dxhJw-25" value="" style="shape=image;verticalLabelPosition=bottom;labelBackgroundColor=none;verticalAlign=top;aspect=fixed;imageAspect=0;image=data:image/png,iVBORw0KGgoAAAANSUhEUgAAAT4AAACfCAMAAABX0UX9AAAAxlBMVEX///8zMzPKJycrKyswMDDHCwseHh4tLS12dnYdHR0kJCQZGRknJychISHrwMDuwMDHAADq6uoWFhbMzMz39/fIGho4ODhAQEDJISHx8fGCgoLf39/U1NTJHR34+PhaWlrc3Nybm5utra28vLxKSkqRkZGkpKSHh4cODg5vb2+4uLjGxsbknZ1lZWVSUlJHR0f56OgAAADeh4fxz8/XaGj129vNMzPSUlLadXXQRUXwy8vrtrbfiorhk5POOzvnqanVXl7RS0tbsiYtAAAPQ0lEQVR4nO1daXubuhIORmEntYF4wY4N3pfaTrM0Oenpcv7/n7ogwNYGyEBvn6R6vyUGGQ2jWd4ZyVdXAgICAgICAgICAgICAgICAgICAgICAgICAgICAgICAhUwGPzpJ3jPmJpfVn/6Gd4xesCe/ulnqILx/f3jt5//n+/y3O1C07TV1O0Qn3QcSXmHq3fw+vW63b5uP/7+rxqGB0exLVmWLVsxu4sR+mFoyNpFo40HnQSDgVd42Wg2DcPQ17T9JMVe0/xFGC637rDoVh68XPdbEe6eao5Tiu1EMYB0BrDM43KcfTqQgLLjHiuYLfZzyTadCKYl9w6baY7m+l3DtA3Dil+aekL8Bi3LsHWnu681qft2K0H7vtY4JRhPLUWVSABjvUgXsWaBLt9Qg9nGNG1LBed3AYBsrDcj1tWjTc/E3hr2AvWuxryLGz+vU/HdvtYapxjbnpIzBcvwh9EFO0eyQp6Rhj5QZOZIsukzNdAbTucO4xZg9ha7MeuOC/Cr38rk99vUbzTXc4QHp73eBB0VSCbpTBgI9ms5fyjZCXPEMdzY1MXzenoH8Zyt3Uh83+sPx4Sv08sWn4ndA5JaboQ6+7KR7OMw596tjl8JenWdRoyH25P4+q26msyEC6ziKcPJRDOflQw0DtfsVYtCdfKG0fCbFbeJyZ2Vr9W6/h2xX2imiw3E7g6194QA1ZKBRkdq/TGh55jQLXY76DWhKyfHAdXvawMj4hgc4ENHMYp12Gu+tj9Ium6xVqC1KB4pXGeCB3Hckf8eJIctvyEmPnXTxPR+9Fuo+n1qYkwEIyleMcCWFqPMKXqDXXiwbcoBmHlGC2IwSSYPrCh2nGx8bXOQDcVgW0Kdmft5XfQr+dx8CT6hyhep30sDYyKYQY2RJWo6g5mm4l6g2HGMADRcqjkPT+/hqjMK9wozpFszfeoBvbTU0vLgH0z5otC50cxtasYPauyZLs7b7RXrPCGlaDpbGDSq+p4SS2cp2bQA2V51g74vvQHP8djGpde6+1V/0BOmayi9/ES2swDGya8UDBQ6cMITdpw2YwSVls+4cIW6XjO4aC5MPN0R4mtdP9cfNUUSaMmTomu8JTDgbIwCU7SIlRiwDVryTSoVGjkBfdnSQC/giNFLcA8t3y26gJvL3HZQZYBUwkGNF3asFHb+bPz4NQCraLF5mkmIj2VKscjFqc+NwZD5+jNmAJsiDoJkWXIQoB1NkQuoqkR6SkmCtSRTaiWgrtkpyOfr2mGfF1u+/j9X31ALePtv3WGTsaVkOgrPxcHmS650NDhnvZTKcgkXbNG8v4umbWueByvEd6h8ka/9D1W/uyZSwatNYqZllglnIHfpruCUjZKQOsZIxeQHLOqKAF3hDt+D5WMcJbmtu9jWvaHR3/XnugNfZSFLSTjCAeg1JAB4VtoI5wRMSqGHqPj0eg+W5muJqXvB1K9+MjjIAjq9nn+bQffDY0Bj4JwKnVZ0HORjo9aDRYiVL3W0bw0TB34WSKi1xJe6H6ByekkfjV9o3+uh4pPrPFiEb7HyZQwpav36P2qOjKwS3omz0UvSBO4Kkocm0uBIraI1Kt06D3aV5Gu3D+kfN5j1+1Zz6LMWWHW0L0zjNIO7+rtEIzta8xHbB0CNB4vwqY0FeWjsF8UytTA++0C9kEYpxjAzZWUx3xkYqaJQ4kPiPiBVf7AYP1DlS5fyKXS+qTW0e37MwtLjzj/MN8tc/dxkKarC/w4WiPWjs1qrMfHdoJYvRgtVv3q8VXh+zAJWzZ3rMgCqobDLY0iURqtRLtDYhOZUEMqAtyiag5c+kd9itPN1Ld7KPz8mmOdc4/lORh9ZKtO2nRXpAvFd9c6rlxYfQljVE98jbvkieFjo96vO4Ij4pDV76lj5COgT+qrxWRAXLF70u3XKZEpIXb2W+F7uKHLl31tEfu06vBVqgNhE1MLEE1RZpmxkcA7S+F1H3ChzFh8l9V5D4nuOVypB7d2joXOthhcX9XCMglZWt0AAHDKrnZ7lYG/5vxshpWRKpZsSX0yT3pHMHsad1qFNPZTVtZfkx8Meq1qrEOTC6qzC8gVNk+fEl/Hi0LCmRtYBOwuo9fmIOo9atOkGlY9OMDg7RqcQvG6VNwY48H91cBKfStPcqPhqUAZQ+X5R/35pijbdodQGkXKFSWEC0GVaE1uje0TIxTVMDMFp8TIIP1R81QkryNEzQuNvjanfEZWNiZBW4w3UDlXvzrtUuwoWoKDiMygDkIuz+BiVSNCI+F4jH9v/j/EBXjKvoX5Y7omIpTOPLZq63rvelTeaEAUKTE/9ajFucHJbjJAJtSmVxQeVj8lKYbELktFdjDHG/KpZ1dW1Y5XS90F62ZYoUKDqh5XF+FnXk+sAPfpDrNJWdW6vkKNnffKM9RzUsX4L9EklK6HelrHZUx0kxxhZmPzQRTpD6zoqt/M4lYNYLTNN1Dqg8uWoFlb0qKN+A7yFxY7NOCwmGgdsTQVYiwDqLDsYdWzyqt9JaRmVNozvqyq+pDr5xvzsO7p6a3Wbhpj6SfrWm8T/McnSEVb9wmoaWEcKt/XLMh5WsOM1IL77dIH+8/L09Prw8P0zxMPDw+vT08vXFia+Gt2mY6KDypLUuFpLkwMzlEFfI+RLiHUO8NTaYmR9LCxnPcC+qtq8sm7Sfv/u7u4WQfQn0S/UatcoGk1R2yXB9lGV2SngI3rqIAFegBfODL7YLwvtWE0Enfriu79t8aNWs/OBDOusI5t9QYJErPFkjumvyvCkNDrp+mTEzESdt1qXAVS+/nU+MPHe1bB+LhHV2ew+tchZntXMRC/Z4vpr8RSMZmnAabN0FSsEO1W6AaDl67/cfMrDzQMW+9Xp2Fhh3sPMN16nXAoc0X+Pu7j5NDkqRmmwza7NYT0ulVqEoHDabLebAF/ddWK/ce+8fIFZQDqdvDSZHuPem6PRJXsTa6ahxELJKg1qUDYlhbRXlLeqE/tddU5dO8AqmvnJSRDJhUd0/QA7KPnGlGlkWj6yQa1EfENGCSaJ+YrLuM9Yx2mtnUaZVQNGUHTZICXRgUzYoyVBqwKpZM7J2gWAvTCnqDaXsTjdNRX6QEK5dPfBS1OpR5ymJbMuftRx6nvpjtojwWqpxfLzEnHnGQrMGJQ05+50OnJM2yEL7yN4q1a7VpsF3MlD9zoRSEMUujjhOhIpv6I3kchHzuvRR2swjEISBl+mCnX30Kpdl3rsVnPqF6+m0h6/QWLwWe3cGtm0rMr5TboDyOeB3MYQHyPBCzvrPQCowBBmtBziaC7zHcbaU7ZdKHUdQGboudclSWlW4pciaa1xcr0UtjGheOv1TqcILw8uSo4a0D3uPGqoX0IZl20STxYVO6wbrSUSTk7lKOlFV/Jf1gQVX/G2mIlKhY6QDOUqgOP7FarHflniYU+KBDiAV8k5e8ymOiU/48AygENI0VoFW9XwXUVF1c9AodpLkni4MGTOgDXr1lC/efa6VbMX5tp8WFPLb4Fc0PJTbbr47kLpyfOCVBbz44X1k8jjkeKFJDNn6+OPRqoeaLMsMOw5W4Ja7C6Bne8IN0TyASffnWJyGiwg7y8fC+IEpO1DKrbIsTEmPHMSDXNyKD9x9atYdCOiNmA488WI0I4AsqjSusgS0fvoY3l3V9nmwM5Ms6H5LJQe4YaK4oF41Ri4/07sGWfzwD2+0bJaxwuZM0hwO6m6nwZZ6OS5WlKtLNhwFUNj7YMGli33Jr6/6Vl2EpFYh8KYrIMTYPk7OGMGEnSxN5G0EHC3LWOJb7WOF5JvzmatGqY93/grf3Ow9WTe6zIuZbFmjgU3qJ+Kesq+mMLrYL0h+a0LIdzGhJE/afMttxe4IdSvQr8fyZeQ0z7Pm4OJmqklR0BIIG8P/gn4bvLczXY+pB3wFo/PiTj4m75x3r7CLv1BwXkh+LwL7V6GzqH4IAMLlO7PJdh/9maR2TF569jafk7zCP7N9q84qX99MW2vOWX6ks67F/ANGNr5A8r2qpx7d4kIiKIPvWB5OqwH9Szjr6ky3XJvuCJ26bfal55yMAoPa6VUA4GjcZPmwcFkD6euT30LRdgRxStJOaym7m7njtzdbLrQJhJyWBMSNd//lzmCfos3hHslN0pXOCXC2/lH3Sg4egUox4sO8pnNGafgWAr77CoCndmGuhfIhpLAti1ZZSYl4+/tsyHr335/Lldz79sPuiDXfqkSvgynmm7Sx2bAZ3d6F7SNJphN1tFg5xNJLNNYlFcwo/d40AvWPgOnPP0ffBnetr+W2bHP/Wuy4gvDl3bFvZbBVOvZunF+v9G0bbPnVzpCKnofB2Dqiq2YRm8fcoyxm3BYERIZm/qTPO2h1W8X+98n6o6TAlberTXujGLr0tPXEXRpstgGNUrwg+FoNtsFHS6zufjyxdT1SN6GkZ7ix4MvadLxs93GC7nR38Wr8KlN3pLdWFX9/jAiabuxd1gul+HC17hwIm4eH28QvL09lnuP5+e3GxJvb2/NHbIhIPBu0Qn3k4nG4zbysD1e7PQ/CsartREf3mqYpratWAdc2F/qH4PzLtGZn7kIWQH7ShLcKUXHFn1gjPDD/4BqrzcVzm+V+dulPxJcxnlpqt7jSD1wTNSy06E+Ilw2awCs9Tzv2Gs2QuuCrUofBUkjPlDx9D6RoA38CwQyNZo4wO99AbZiyfpxr23mhk7msUB2JtzbZ6ZGI8dHvitMZAkoqY55u1XXtggJqkov5FvDS+OSXcIfAgtFUrsB8o9h2DMJOhEYJheTs1H/NvEFtqRSzfmuZpCHv8rKYVrKxaiX/DzDh8BEVbus3RrTo0kwoaptlKjg1m7k8NJ3BNcBVo5rdTe0CtpFkUzcUVjrfKj3B80q6FLtLAAZTwNb1/LWZ+yDjjmffVD07MJAbTydUz/jISvdlUubwc7E4j/X8qOA+mko+grNISMZYOnGZoqt+UEIj2p3Gvixjo+Gjq/SObFs29Ik3O5cN3Bny70MCZu/kzEoxWA6J0NBKSntKYpu6nb2IwEljfV/MUYbg1zDFAzxc4T56CzU4h/lkfMOdhNIsNvbeb8uFhk+VvgtgGEYAoqUSaVXvMVOIMVM6zJ+2Mc+/F35Rg147upgOooR/7QRhGybf2eNqDo6u6W/P/S63W7voG1/y4+pfXx4g8FAiE5AQEBAQEBAQEBAQEBAQEBAQEBAQEBAQEBAQEBAQEBAQEBAQEBAQEBAQODD4n9zYBKWKyOsHQAAAABJRU5ErkJggg==;rounded=0;fontSize=10;" vertex="1" parent="1">
          <mxGeometry x="-29.20459107806687" y="16.72638436482086" width="105.60455703387724" height="52.80227851693862" as="geometry" />
        </mxCell>
        <mxCell id="zrMExZ_hn0nJ5K-dxhJw-26" style="edgeStyle=orthogonalEdgeStyle;rounded=0;orthogonalLoop=1;jettySize=auto;html=1;exitX=0.75;exitY=0;exitDx=0;exitDy=0;fontSize=10;" edge="1" parent="1" source="zrMExZ_hn0nJ5K-dxhJw-25">
          <mxGeometry relative="1" as="geometry">
            <mxPoint x="50" y="-31" as="targetPoint" />
          </mxGeometry>
        </mxCell>
        <mxCell id="zrMExZ_hn0nJ5K-dxhJw-27" style="edgeStyle=orthogonalEdgeStyle;rounded=0;orthogonalLoop=1;jettySize=auto;html=1;exitX=0.25;exitY=0;exitDx=0;exitDy=0;startArrow=classic;startFill=1;endArrow=none;endFill=0;fontSize=10;" edge="1" parent="1" source="zrMExZ_hn0nJ5K-dxhJw-25">
          <mxGeometry relative="1" as="geometry">
            <mxPoint x="-3" y="-29" as="targetPoint" />
          </mxGeometry>
        </mxCell>
        <mxCell id="zrMExZ_hn0nJ5K-dxhJw-28" value="&lt;div style=&quot;font-size: 10px;&quot;&gt;Task&lt;/div&gt;&lt;div style=&quot;font-size: 10px;&quot;&gt;Results&lt;/div&gt;" style="text;html=1;align=center;verticalAlign=middle;whiteSpace=wrap;rounded=0;fontSize=10;" vertex="1" parent="1">
          <mxGeometry x="36.48074349442382" y="-21.794788273615637" width="66.80297397769519" height="32.100977198697066" as="geometry" />
        </mxCell>
        <mxCell id="zrMExZ_hn0nJ5K-dxhJw-111" style="edgeStyle=orthogonalEdgeStyle;rounded=0;orthogonalLoop=1;jettySize=auto;html=1;exitX=1;exitY=0.5;exitDx=0;exitDy=0;entryX=0.25;entryY=1;entryDx=0;entryDy=0;" edge="1" parent="1" source="zrMExZ_hn0nJ5K-dxhJw-30" target="zrMExZ_hn0nJ5K-dxhJw-25">
          <mxGeometry relative="1" as="geometry" />
        </mxCell>
        <mxCell id="zrMExZ_hn0nJ5K-dxhJw-30" value="" style="editableCssRules=.*;html=1;shape=image;verticalLabelPosition=bottom;labelBackgroundColor=none;verticalAlign=top;aspect=fixed;imageAspect=0;image=data:image/svg+xml,PHN2ZyB4bWxucz0iaHR0cDovL3d3dy53My5vcmcvMjAwMC9zdmciIHhtbG5zOnY9Imh0dHBzOi8vdmVjdGEuaW8vbmFubyIgd2lkdGg9IjIwIiBoZWlnaHQ9IjIwIiB2aWV3Qm94PSIwIDAgMjAgMjAiPiYjeGE7CTxzdHlsZSB0eXBlPSJ0ZXh0L2NzcyI+JiN4YTsJLnN0MHtmaWxsOiM0Mjg1ZjQ7fSYjeGE7CTwvc3R5bGU+JiN4YTsJPHBhdGggY2xhc3M9InN0MCIgZD0iTTE3IDEydjNsLTUtNSA1LTV2M2gzdjR6TTMgOEgwdjRoM3YzbDUtNS01LTV6bTkgN3YtM0g4djNINWw1IDUgNS01em0wLTEwdjNIOFY1SDVsNS01IDUgNXoiLz4mI3hhOzwvc3ZnPg==;rounded=0;fontSize=10;" vertex="1" parent="1">
          <mxGeometry x="-88.21388475836429" y="101.46226384364815" width="55.97041522795494" height="55.97041522795494" as="geometry" />
        </mxCell>
        <mxCell id="zrMExZ_hn0nJ5K-dxhJw-52" style="edgeStyle=orthogonalEdgeStyle;rounded=0;orthogonalLoop=1;jettySize=auto;html=1;exitX=-0.017;exitY=0.5;exitDx=0;exitDy=0;entryX=0.75;entryY=1;entryDx=0;entryDy=0;exitPerimeter=0;dashed=1;fontSize=10;" edge="1" parent="1" source="zrMExZ_hn0nJ5K-dxhJw-31" target="zrMExZ_hn0nJ5K-dxhJw-25">
          <mxGeometry relative="1" as="geometry" />
        </mxCell>
        <mxCell id="zrMExZ_hn0nJ5K-dxhJw-31" value="" style="editableCssRules=.*;html=1;shape=image;verticalLabelPosition=bottom;labelBackgroundColor=none;verticalAlign=top;aspect=fixed;imageAspect=0;image=data:image/svg+xml,PHN2ZyB4bWxucz0iaHR0cDovL3d3dy53My5vcmcvMjAwMC9zdmciIHhtbG5zOnY9Imh0dHBzOi8vdmVjdGEuaW8vbmFubyIgd2lkdGg9IjIwIiBoZWlnaHQ9IjIwIiB2aWV3Qm94PSIwIDAgMjAgMjAiPiYjeGE7CTxzdHlsZSB0eXBlPSJ0ZXh0L2NzcyI+JiN4YTsJLnN0MHtmaWxsOiM0Mjg1ZjQ7fSYjeGE7CTwvc3R5bGU+JiN4YTsJPHBhdGggY2xhc3M9InN0MCIgZD0iTTE3IDEydjNsLTUtNSA1LTV2M2gzdjR6TTMgOEgwdjRoM3YzbDUtNS01LTV6bTkgN3YtM0g4djNINWw1IDUgNS01em0wLTEwdjNIOFY1SDVsNS01IDUgNXoiLz4mI3hhOzwvc3ZnPg==;rounded=0;fontSize=10;" vertex="1" parent="1">
          <mxGeometry x="82.13369888475842" y="101.46226384364815" width="55.97041522795494" height="55.97041522795494" as="geometry" />
        </mxCell>
        <mxCell id="zrMExZ_hn0nJ5K-dxhJw-90" style="edgeStyle=orthogonalEdgeStyle;rounded=0;orthogonalLoop=1;jettySize=auto;html=1;exitX=0.5;exitY=1;exitDx=0;exitDy=0;entryX=1;entryY=0.25;entryDx=0;entryDy=0;dashed=1;fontSize=10;" edge="1" parent="1" source="zrMExZ_hn0nJ5K-dxhJw-32" target="zrMExZ_hn0nJ5K-dxhJw-85">
          <mxGeometry relative="1" as="geometry" />
        </mxCell>
        <mxCell id="zrMExZ_hn0nJ5K-dxhJw-32" value="" style="shape=image;verticalLabelPosition=bottom;labelBackgroundColor=default;verticalAlign=top;aspect=fixed;imageAspect=0;image=data:image/png,iVBORw0KGgoAAAANSUhEUgAAAgAAAAIACAMAAADDpiTIAAABzlBMVEUAAAAAAAAAAAAAAAAAAAAAAAAAAAAAAAAAAAAAAAAAAAAAAAAAAAAAAAAAAAAAAAAAAAAAAAAAAAAAAAAAAAAAAAAAAAAAAAAAAAAAAAAAAAAAAAAAAAAAAAAAAAAAAAAAAAAAAAAAAAAAAAAAAAAAAAAAAAAAAAAAAAAAAAAAAAAAAAAAAAAAAAAAAAAAAAAAAAAAAAAAAAAAAAAAAAAAAAAAAAAAAAAAAAAAAAAAAAAAAAAAAAAAAAAAAAAAAAAAAAAAAAAAAAAAAAAAAAAAAAAAAAAAAAAAAAAAAAAAAAAAAAAAAAAAAAAAAAAAAAAAAAAAAAAAAAAAAAAAAAAAAAAAAAAAAAAAAAAAAAAAAAAAAAAAAAAAAAAAAAAAAAAAAAAAAAAAAAAAAAAAAAAAAAAAAAAAAAAAAAAAAAAAAAAAAAAAAAAAAAAAAAAAAAAAAAAAAAAAAAAAAAAAAAAAAAAAAAAAAAAAAAAAAAAAAAAAAAAAAAAAAAAAAAAAAAAAAAAAAAAAAAAAAAAAAAAAAAAAAAAAAAAAAAAAAAAAAAAAAAAAAAAAAAAAAAAAAAAAAAAAAAAAAAAAAAAAAAAAAAAAAAAAAAAAAAAAAAB3W8d/AAAAmXRSTlMADDJFVWFmCwhBg7ziggpct/e2Wiue8p0qL6L8/rM2GKoXAmzw72oBFD/l4z1b+vlu/XR9emdTUPX0KQnR05o+BtbVBXfr7HZy5+ZXtPtraK4wLmBdh4Srz83f3On42BlwgF8V0EKgZaHFmSxJ3fathqlWB3F1BNLUQJuYJvMoUU1jeHNSWDw6tRNp7u0SkRY0nPFZuuHgRFRT38jlAAAK8ElEQVR42u3diYPVVRmH8YMbgxCyKBrcCRgM3FIxLZLKfVRyUsByQw2zbLVS07KytFxb3BX+2xhGYAZm7px757zv9z2+z+cf8OD3EWfu/S2lAAAAAAAAAAAAAAAAAAAAAAAAAAAAAAAAAACAHq067/wLLrwIXbrwgvPPWz3+9hNrLl677jg6t27tV9ZMjL7++ks2bFQfHa1s3LR5/UjzX3rZFvWZ0daWy6+onv+rW7epj4v2BpNfq5p/+9aB+qgwsmPnsvNP7bpSfUrY+fruPcP3v2qT+oiwtXb7sP2vvkZ9Pli79rql9//G9erTwd4Nm5fa/8a96rPBw+Cmxff/pvpg8HLzYvvfoj4V/Ow6d/9v8eFPItu+ffb+l+5TnwmevnPrwv33f1d9Ivj63sJvhy5Xnwfevj9//9v4+D+dwZoz+99+h/o08HfnXacDuFt9Fiic/jxo9T3qo0BhetUXAdyrPgk07pvbf+J+9UGgcWDuYtHN6nNA5QcnA9igPgZUHpjdf+eM+hhQmZm9POiH6lNA58ETATykPgR0dpQyxYcAiU1PlYPqM0DpUDmsPgKUHi4/Uh8BSj/mZ8DcHimPqo8ApcfK4+ojQOmJwm+BqR0pT6qPAKWNRX0CaBFAcgSQHAEkRwDJEUByBJAcASRHAMkRQHIEkBwBJEcAyRFAcgSQHAEkRwDJEUByBJAcASRHAMkRQHIEkBwBJEcAyRFAcgSQHAEkRwDJEUByBJAcASRHAMkRQHIEkBwBJOcbAI8kC8c1gKee5gV10XgG8NTTvKIwHMcAZvengGj8ApjbnwKCcQvg1P4UEItXAGf2p4BQnAKYvz8FROITwML9KSAQlwDO3p8C4vAI4Nz9KSAMhwAW258CorAPYPH9KSAI8wCW2p8CYrAOYOn9KSAE4wCG7U8BEdgGMHx/CgjANIDl9qcAPcsAlt+fAuQMA6jZnwLU7AKo258CxMwCqN2fArSsAqjfnwKkjAIYZX8KULIJYLT9KUDIJIBR96cAHYsARt+fAmQMAhhnfwpQaR/AePtTgEjzAMbdnwI0Wgcw/v4UINE4gJXsTwEKbQNY2f4UINA0gJXuTwH+Wgaw8v0pwF3DAFrsTwHe2gXQZn8KcNYugJ+02b+Uo+p/J6m0C2DvM60K4O8ARw1/BqCAHrX8LYACOtT0cwAK6E/bTwIpoDuNvwuggN60/jaQAjrT/HoACuhL+yuCKKArBtcEUkBPLK4KpoCOmNwXQAH9sLkziAK6YXRvIAX0wuruYArohNnzASigD3ZPCKGALhg+I4gCemD5lDAK6IDpcwIpID7bJ4VSQHjGzwqmgOisnxZOAcGZvy+AAmKzf2MIBYTm8M4gCojM461hFBCYy3sDKSAunzeHUkBYTu8OpoCovN4eTgFBeQVAAUG5BUABMfkFQAEhOQZAARF5BkABAbkGQAHx+AZAAeE4B0AB0XgHQAHBuAdAAbH4B0ABoQgCoIBIFAFQQCCSACggDk0AFBCGKAAKiEIVAAUEIQuAAmLQBUABIQgDoIAIlAFQQADSAChATxsABciJA6AANXUAFCAmD4ACtPQBUIBUgAAoQClCABQgFCIACtCJEQAFyAQJgAJUogRAASJhAqAAjTgBUIBEoAAoQCFSABQgECoACvAXKwAKcBcsAArwFi0ACnAWLoDjW37aKICpZ9V/lB6EC2Dfz1rt/3P1H6UL0QJgf2fBAmB/b7ECYH93oQJgf3+RAmB/gUABsL9CnADYXyJMAOyvESUA9hcJEgD7q8QIgP1lQgTA/joRAmB/oQABsL+SPgD2l5IHwP5a6gDYX0wcAPuraQNgfzlpAOyvpwyA/QMQBsD+EegCYP8QZAGwfwyqANg/CFEA7B+FJgD2D0MSAPvHoQiA/QMRBMD+kfgHwP6huAfA/rF4B8D+wTgHwP7R+AbA/uG4BsD+8XgGwP4BOQbA/hH5BcD+IbkFwP4xeQXA/kE5BcD+UfkEwP5huQTA/nF5BMD+gTkEwP6R2QfA/qGZB8D+sVkHwP7BGQfA/tHZBsD+4ZkGwP7xWQbA/h0wDID9e2AXAPt3wSwA9u+DVQDs3wmjANi/FzYBsH83TAJg/35YBMD+HTEIgP170j4A9u9K8wDYvy+tA2D/zjQOgP170zYA9u9O0wDYvz8tA2D/DjUMgP171C4A9u9SuwCea7X/L1qd6Je/imaTZOOh2gVw5NfR/vu/sVGS7fxGMfFwDX8GaFJAy7//CaBCy98CGhTQ9P//BFCh6ecAKy6g7c9/BFCh7SeBKyyg8c//BFCh8XcBKyqg9e9/BFCh9beBKyig+e//BFCh+fUAYxfQ/vMfAqjQ/oqgMQsw+PyPACoYXBM4VgEWn/8SQAWLq4LHKMDk838CqGByX8DIBdh8/0MAFWzuDBqxAKPv/wiggtG9gSMVYPX9LwFUsLo7eIQCzL7/J4AKZs8HqC7A7voPAqhg94SQygIMr/8hgAqGzwiqKsDy+i8CqGD5lLCKAkyv/yOACqbPCVy2ANvrPwmggu2TQpcpwPj6XwKoYPys4KEFWF//TQAVrJ8WPqQA8+v/CaCC+fsClizA/v4PAqhg/8aQJQpwuP+HACo4vDNo0QI87v8igAoebw1bpACX+/8IoILLewPPKcDn/k8CqODz5tCzCnC6/5cAKji9O3hBAV73fxNABa+3h88rwO3+fwKo4BXAmQL8nv9AABXcAjhVgOPzPwiggl8AcwV4Pv+FACo4BjBbgOvzfwiggmcAx48ccn3+EwFUcA3g+PWu/7Tp30Zzv+ufv4pvAAiHAJIjgOQIIDkCSI4AkiOA5AggOQJIjgCSI4DkCCA5AkiOAJIjgOQIIDkCSI4AkiOA5AggOQJIjgCSI4DkCCA5AkiOAJIjgOQIIDkCSI4AkiOA5AggOQJIjgCSI4DkCCA5AkiOAJIjgOQIIDkCSI4AkiOA5AggOQJIjgCSI4DkCCA5AkiOAJIjgOQIIDkCSI4AkiOA5AggOQJIjgCSI4DkCCA5AkiOAJIjgOQIIDkCSI4AkiOA5AggOQJIjgCSI4DkCCA5AkiOAJIjgOQIIDkCSI4AkiOA5AggOQJIjgCSI4DkCCA5AkiOAJIjgOQIIDkCSI4AkiOA5AggOQJIjgCSI4DkCCA5AkiOAJIjgOQIIDkCSI4AkiOA5AggOQJIjgCSI4DkCCA5AkiuPKk+AZSeL/eojwClI+Vx9RGg9ER5VH0EKD1Wfqc+ApR2lN+rjwCli8sz6iNA6ZJyUH0EKB0qU/wemNj0VOGnwMz+UErZrT4EdB48EcDOGfUpoDKz80QAZYP6GFCZnN2/bFYfAyovnAxg4oD6HNC45sWTAZSb1AeBxktz+5fVfBSQ0vSqLwIof1QfBQr3ndq/vPyK+izw96e7TgdQrhuoTwNvgz+XeV5VHwfe/jJ//zLxrPo88PXK/gUBlL9uUZ8Inv72WjnL37epzwQ/M/8o53hOfSi4GbxeFnGz+ljw8kZZ1K696oPBw+CfZQn/2qg+G+zd8GZZ0lvXqk8Ha+veLkNc9Y76fLA1+W4Zas97/1YfEXb+c8uespz//o+fBb+kBlvfX3b+WYe28qHQl9DeyQ+q5p91xYcfqY+Ltq589bXq+Wft//iB59VnRiv7Jt/cP9L8J7149dFPPuVCgc4NPvvk6G23j77+KesPfn7s8EXo0uFjnx9cP/72AAAAAAAAAAAAAAAAAAAAAAAAAAAAAAAAAABA6P/Kq2VynOaE9gAAAABJRU5ErkJggg==;fontSize=10;" vertex="1" parent="1">
          <mxGeometry x="204.52788104089234" y="107.88245928338756" width="43.297868383889664" height="43.297868383889664" as="geometry" />
        </mxCell>
        <mxCell id="zrMExZ_hn0nJ5K-dxhJw-89" style="edgeStyle=orthogonalEdgeStyle;rounded=0;orthogonalLoop=1;jettySize=auto;html=1;exitX=0.5;exitY=1;exitDx=0;exitDy=0;entryX=0;entryY=0.25;entryDx=0;entryDy=0;fontSize=10;" edge="1" parent="1" source="zrMExZ_hn0nJ5K-dxhJw-33" target="zrMExZ_hn0nJ5K-dxhJw-85">
          <mxGeometry relative="1" as="geometry" />
        </mxCell>
        <mxCell id="zrMExZ_hn0nJ5K-dxhJw-33" value="" style="shape=image;verticalLabelPosition=bottom;labelBackgroundColor=default;verticalAlign=top;aspect=fixed;imageAspect=0;image=data:image/png,iVBORw0KGgoAAAANSUhEUgAAAgAAAAIACAMAAADDpiTIAAABzlBMVEUAAAAAAAAAAAAAAAAAAAAAAAAAAAAAAAAAAAAAAAAAAAAAAAAAAAAAAAAAAAAAAAAAAAAAAAAAAAAAAAAAAAAAAAAAAAAAAAAAAAAAAAAAAAAAAAAAAAAAAAAAAAAAAAAAAAAAAAAAAAAAAAAAAAAAAAAAAAAAAAAAAAAAAAAAAAAAAAAAAAAAAAAAAAAAAAAAAAAAAAAAAAAAAAAAAAAAAAAAAAAAAAAAAAAAAAAAAAAAAAAAAAAAAAAAAAAAAAAAAAAAAAAAAAAAAAAAAAAAAAAAAAAAAAAAAAAAAAAAAAAAAAAAAAAAAAAAAAAAAAAAAAAAAAAAAAAAAAAAAAAAAAAAAAAAAAAAAAAAAAAAAAAAAAAAAAAAAAAAAAAAAAAAAAAAAAAAAAAAAAAAAAAAAAAAAAAAAAAAAAAAAAAAAAAAAAAAAAAAAAAAAAAAAAAAAAAAAAAAAAAAAAAAAAAAAAAAAAAAAAAAAAAAAAAAAAAAAAAAAAAAAAAAAAAAAAAAAAAAAAAAAAAAAAAAAAAAAAAAAAAAAAAAAAAAAAAAAAAAAAAAAAAAAAAAAAAAAAAAAAAAAAAAAAAAAAAAAAAAAAAAAAAAAAAAAAAAAAB3W8d/AAAAmXRSTlMADDJFVWFmCwhBg7ziggpct/e2Wiue8p0qL6L8/rM2GKoXAmzw72oBFD/l4z1b+vlu/XR9emdTUPX0KQnR05o+BtbVBXfr7HZy5+ZXtPtraK4wLmBdh4Srz83f3On42BlwgF8V0EKgZaHFmSxJ3fathqlWB3F1BNLUQJuYJvMoUU1jeHNSWDw6tRNp7u0SkRY0nPFZuuHgRFRT38jlAAAK8ElEQVR42u3diYPVVRmH8YMbgxCyKBrcCRgM3FIxLZLKfVRyUsByQw2zbLVS07KytFxb3BX+2xhGYAZm7px757zv9z2+z+cf8OD3EWfu/S2lAAAAAAAAAAAAAAAAAAAAAAAAAAAAAAAAAACAHq067/wLLrwIXbrwgvPPWz3+9hNrLl677jg6t27tV9ZMjL7++ks2bFQfHa1s3LR5/UjzX3rZFvWZ0daWy6+onv+rW7epj4v2BpNfq5p/+9aB+qgwsmPnsvNP7bpSfUrY+fruPcP3v2qT+oiwtXb7sP2vvkZ9Pli79rql9//G9erTwd4Nm5fa/8a96rPBw+Cmxff/pvpg8HLzYvvfoj4V/Ow6d/9v8eFPItu+ffb+l+5TnwmevnPrwv33f1d9Ivj63sJvhy5Xnwfevj9//9v4+D+dwZoz+99+h/o08HfnXacDuFt9Fiic/jxo9T3qo0BhetUXAdyrPgk07pvbf+J+9UGgcWDuYtHN6nNA5QcnA9igPgZUHpjdf+eM+hhQmZm9POiH6lNA58ETATykPgR0dpQyxYcAiU1PlYPqM0DpUDmsPgKUHi4/Uh8BSj/mZ8DcHimPqo8ApcfK4+ojQOmJwm+BqR0pT6qPAKWNRX0CaBFAcgSQHAEkRwDJEUByBJAcASRHAMkRQHIEkBwBJEcAyRFAcgSQHAEkRwDJEUByBJAcASRHAMkRQHIEkBwBJEcAyRFAcgSQHAEkRwDJEUByBJAcASRHAMkRQHIEkBwBJOcbAI8kC8c1gKee5gV10XgG8NTTvKIwHMcAZvengGj8ApjbnwKCcQvg1P4UEItXAGf2p4BQnAKYvz8FROITwML9KSAQlwDO3p8C4vAI4Nz9KSAMhwAW258CorAPYPH9KSAI8wCW2p8CYrAOYOn9KSAE4wCG7U8BEdgGMHx/CgjANIDl9qcAPcsAlt+fAuQMA6jZnwLU7AKo258CxMwCqN2fArSsAqjfnwKkjAIYZX8KULIJYLT9KUDIJIBR96cAHYsARt+fAmQMAhhnfwpQaR/AePtTgEjzAMbdnwI0Wgcw/v4UINE4gJXsTwEKbQNY2f4UINA0gJXuTwH+Wgaw8v0pwF3DAFrsTwHe2gXQZn8KcNYugJ+02b+Uo+p/J6m0C2DvM60K4O8ARw1/BqCAHrX8LYACOtT0cwAK6E/bTwIpoDuNvwuggN60/jaQAjrT/HoACuhL+yuCKKArBtcEUkBPLK4KpoCOmNwXQAH9sLkziAK6YXRvIAX0wuruYArohNnzASigD3ZPCKGALhg+I4gCemD5lDAK6IDpcwIpID7bJ4VSQHjGzwqmgOisnxZOAcGZvy+AAmKzf2MIBYTm8M4gCojM461hFBCYy3sDKSAunzeHUkBYTu8OpoCovN4eTgFBeQVAAUG5BUABMfkFQAEhOQZAARF5BkABAbkGQAHx+AZAAeE4B0AB0XgHQAHBuAdAAbH4B0ABoQgCoIBIFAFQQCCSACggDk0AFBCGKAAKiEIVAAUEIQuAAmLQBUABIQgDoIAIlAFQQADSAChATxsABciJA6AANXUAFCAmD4ACtPQBUIBUgAAoQClCABQgFCIACtCJEQAFyAQJgAJUogRAASJhAqAAjTgBUIBEoAAoQCFSABQgECoACvAXKwAKcBcsAArwFi0ACnAWLoDjW37aKICpZ9V/lB6EC2Dfz1rt/3P1H6UL0QJgf2fBAmB/b7ECYH93oQJgf3+RAmB/gUABsL9CnADYXyJMAOyvESUA9hcJEgD7q8QIgP1lQgTA/joRAmB/oQABsL+SPgD2l5IHwP5a6gDYX0wcAPuraQNgfzlpAOyvpwyA/QMQBsD+EegCYP8QZAGwfwyqANg/CFEA7B+FJgD2D0MSAPvHoQiA/QMRBMD+kfgHwP6huAfA/rF4B8D+wTgHwP7R+AbA/uG4BsD+8XgGwP4BOQbA/hH5BcD+IbkFwP4xeQXA/kE5BcD+UfkEwP5huQTA/nF5BMD+gTkEwP6R2QfA/qGZB8D+sVkHwP7BGQfA/tHZBsD+4ZkGwP7xWQbA/h0wDID9e2AXAPt3wSwA9u+DVQDs3wmjANi/FzYBsH83TAJg/35YBMD+HTEIgP170j4A9u9K8wDYvy+tA2D/zjQOgP170zYA9u9O0wDYvz8tA2D/DjUMgP171C4A9u9SuwCea7X/L1qd6Je/imaTZOOh2gVw5NfR/vu/sVGS7fxGMfFwDX8GaFJAy7//CaBCy98CGhTQ9P//BFCh6ecAKy6g7c9/BFCh7SeBKyyg8c//BFCh8XcBKyqg9e9/BFCh9beBKyig+e//BFCh+fUAYxfQ/vMfAqjQ/oqgMQsw+PyPACoYXBM4VgEWn/8SQAWLq4LHKMDk838CqGByX8DIBdh8/0MAFWzuDBqxAKPv/wiggtG9gSMVYPX9LwFUsLo7eIQCzL7/J4AKZs8HqC7A7voPAqhg94SQygIMr/8hgAqGzwiqKsDy+i8CqGD5lLCKAkyv/yOACqbPCVy2ANvrPwmggu2TQpcpwPj6XwKoYPys4KEFWF//TQAVrJ8WPqQA8+v/CaCC+fsClizA/v4PAqhg/8aQJQpwuP+HACo4vDNo0QI87v8igAoebw1bpACX+/8IoILLewPPKcDn/k8CqODz5tCzCnC6/5cAKji9O3hBAV73fxNABa+3h88rwO3+fwKo4BXAmQL8nv9AABXcAjhVgOPzPwiggl8AcwV4Pv+FACo4BjBbgOvzfwiggmcAx48ccn3+EwFUcA3g+PWu/7Tp30Zzv+ufv4pvAAiHAJIjgOQIIDkCSI4AkiOA5AggOQJIjgCSI4DkCCA5AkiOAJIjgOQIIDkCSI4AkiOA5AggOQJIjgCSI4DkCCA5AkiOAJIjgOQIIDkCSI4AkiOA5AggOQJIjgCSI4DkCCA5AkiOAJIjgOQIIDkCSI4AkiOA5AggOQJIjgCSI4DkCCA5AkiOAJIjgOQIIDkCSI4AkiOA5AggOQJIjgCSI4DkCCA5AkiOAJIjgOQIIDkCSI4AkiOA5AggOQJIjgCSI4DkCCA5AkiOAJIjgOQIIDkCSI4AkiOA5AggOQJIjgCSI4DkCCA5AkiOAJIjgOQIIDkCSI4AkiOA5AggOQJIjgCSI4DkCCA5AkiOAJIjgOQIIDkCSI4AkiOA5AggOQJIjgCSI4DkCCA5AkiuPKk+AZSeL/eojwClI+Vx9RGg9ER5VH0EKD1Wfqc+ApR2lN+rjwCli8sz6iNA6ZJyUH0EKB0qU/wemNj0VOGnwMz+UErZrT4EdB48EcDOGfUpoDKz80QAZYP6GFCZnN2/bFYfAyovnAxg4oD6HNC45sWTAZSb1AeBxktz+5fVfBSQ0vSqLwIof1QfBQr3ndq/vPyK+izw96e7TgdQrhuoTwNvgz+XeV5VHwfe/jJ//zLxrPo88PXK/gUBlL9uUZ8Inv72WjnL37epzwQ/M/8o53hOfSi4GbxeFnGz+ljw8kZZ1K696oPBw+CfZQn/2qg+G+zd8GZZ0lvXqk8Ha+veLkNc9Y76fLA1+W4Zas97/1YfEXb+c8uespz//o+fBb+kBlvfX3b+WYe28qHQl9DeyQ+q5p91xYcfqY+Ltq589bXq+Wft//iB59VnRiv7Jt/cP9L8J7149dFPPuVCgc4NPvvk6G23j77+KesPfn7s8EXo0uFjnx9cP/72AAAAAAAAAAAAAAAAAAAAAAAAAAAAAAAAAABA6P/Kq2VynOaE9gAAAABJRU5ErkJggg==;fontSize=10;" vertex="1" parent="1">
          <mxGeometry x="-192.94981412639405" y="107.88245928338756" width="43.297868383889664" height="43.297868383889664" as="geometry" />
        </mxCell>
        <mxCell id="zrMExZ_hn0nJ5K-dxhJw-48" style="edgeStyle=orthogonalEdgeStyle;rounded=0;orthogonalLoop=1;jettySize=auto;html=1;startArrow=classic;startFill=1;dashed=1;fontSize=10;" edge="1" parent="1">
          <mxGeometry relative="1" as="geometry">
            <mxPoint x="111.53979072008809" y="159.59554831704668" as="targetPoint" />
            <mxPoint x="69.80855018587368" y="212.54234527687305" as="sourcePoint" />
            <Array as="points">
              <mxPoint x="111.00371747211898" y="212.54234527687305" />
            </Array>
          </mxGeometry>
        </mxCell>
        <mxCell id="zrMExZ_hn0nJ5K-dxhJw-77" style="edgeStyle=orthogonalEdgeStyle;rounded=0;orthogonalLoop=1;jettySize=auto;html=1;exitX=0.501;exitY=0.997;exitDx=0;exitDy=0;exitPerimeter=0;fontSize=10;" edge="1" parent="1" source="zrMExZ_hn0nJ5K-dxhJw-34" target="zrMExZ_hn0nJ5K-dxhJw-36">
          <mxGeometry relative="1" as="geometry" />
        </mxCell>
        <mxCell id="zrMExZ_hn0nJ5K-dxhJw-34" value="" style="image;aspect=fixed;html=1;points=[];align=center;fontSize=10;image=img/lib/azure2/databases/Azure_Database_MySQL_Server.svg;rounded=0;labelBackgroundColor=none;" vertex="1" parent="1">
          <mxGeometry x="-13.928977695167248" y="181.51140065146586" width="76.62666658378133" height="102.16184847457282" as="geometry" />
        </mxCell>
        <mxCell id="zrMExZ_hn0nJ5K-dxhJw-35" value="Primary R/W" style="text;html=1;align=center;verticalAlign=middle;whiteSpace=wrap;rounded=0;fontColor=#FFFFFF;fontSize=10;" vertex="1" parent="1">
          <mxGeometry x="-15.532249070631963" y="248.92345276872965" width="82.39033457249072" height="32.100977198697066" as="geometry" />
        </mxCell>
        <mxCell id="zrMExZ_hn0nJ5K-dxhJw-41" style="edgeStyle=orthogonalEdgeStyle;rounded=0;orthogonalLoop=1;jettySize=auto;html=1;exitX=0;exitY=0.5;exitDx=0;exitDy=0;entryX=0.497;entryY=-0.056;entryDx=0;entryDy=0;entryPerimeter=0;fontSize=10;" edge="1" parent="1" source="zrMExZ_hn0nJ5K-dxhJw-25" target="zrMExZ_hn0nJ5K-dxhJw-30">
          <mxGeometry relative="1" as="geometry" />
        </mxCell>
        <mxCell id="zrMExZ_hn0nJ5K-dxhJw-42" style="edgeStyle=orthogonalEdgeStyle;rounded=0;orthogonalLoop=1;jettySize=auto;html=1;exitX=1;exitY=0.5;exitDx=0;exitDy=0;entryX=0.498;entryY=-0.041;entryDx=0;entryDy=0;entryPerimeter=0;dashed=1;fontSize=10;" edge="1" parent="1" source="zrMExZ_hn0nJ5K-dxhJw-25" target="zrMExZ_hn0nJ5K-dxhJw-31">
          <mxGeometry relative="1" as="geometry" />
        </mxCell>
        <mxCell id="zrMExZ_hn0nJ5K-dxhJw-43" value="Run MySQL Operation" style="text;html=1;align=center;verticalAlign=middle;whiteSpace=wrap;rounded=0;fontSize=10;" vertex="1" parent="1">
          <mxGeometry x="111.00371747211898" y="48.035537459283375" width="66.80297397769519" height="32.100977198697066" as="geometry" />
        </mxCell>
        <mxCell id="zrMExZ_hn0nJ5K-dxhJw-44" value="Run MySQL Operation" style="text;html=1;align=center;verticalAlign=middle;whiteSpace=wrap;rounded=0;fontSize=10;" vertex="1" parent="1">
          <mxGeometry x="-122.80669144981411" y="48.035537459283375" width="66.80297397769519" height="32.100977198697066" as="geometry" />
        </mxCell>
        <mxCell id="zrMExZ_hn0nJ5K-dxhJw-53" value="Operation&lt;div style=&quot;font-size: 10px;&quot;&gt;Results&lt;/div&gt;" style="text;html=1;align=center;verticalAlign=middle;whiteSpace=wrap;rounded=0;fontSize=10;" vertex="1" parent="1">
          <mxGeometry x="-10.786933085501778" y="83.06840390879478" width="66.80297397769519" height="32.100977198697066" as="geometry" />
        </mxCell>
        <mxCell id="zrMExZ_hn0nJ5K-dxhJw-55" value="&lt;i style=&quot;font-size: 10px;&quot;&gt;If Involved: &lt;/i&gt;Establish MySQL Connection &amp;amp; Run Task" style="text;html=1;align=center;verticalAlign=middle;whiteSpace=wrap;rounded=0;fontSize=10;" vertex="1" parent="1">
          <mxGeometry x="-88.21299256505571" y="-21.794592833876223" width="85.73048327137548" height="32.100977198697066" as="geometry" />
        </mxCell>
        <mxCell id="zrMExZ_hn0nJ5K-dxhJw-56" value="Proxy Requests" style="text;html=1;align=center;verticalAlign=middle;whiteSpace=wrap;rounded=0;fontSize=10;" vertex="1" parent="1">
          <mxGeometry x="74.34001858736065" y="208.26221498371336" width="66.80297397769519" height="32.100977198697066" as="geometry" />
        </mxCell>
        <mxCell id="zrMExZ_hn0nJ5K-dxhJw-57" style="edgeStyle=orthogonalEdgeStyle;rounded=0;orthogonalLoop=1;jettySize=auto;html=1;entryX=0.499;entryY=1.043;entryDx=0;entryDy=0;entryPerimeter=0;startArrow=classic;startFill=1;fontSize=10;" edge="1" parent="1" target="zrMExZ_hn0nJ5K-dxhJw-30">
          <mxGeometry relative="1" as="geometry">
            <mxPoint x="-15.921933085501792" y="212.54234527687305" as="sourcePoint" />
          </mxGeometry>
        </mxCell>
        <mxCell id="zrMExZ_hn0nJ5K-dxhJw-58" value="Proxy Requests" style="text;html=1;align=center;verticalAlign=middle;whiteSpace=wrap;rounded=0;fontSize=10;" vertex="1" parent="1">
          <mxGeometry x="-86.14299256505572" y="208.26221498371336" width="66.80297397769519" height="32.100977198697066" as="geometry" />
        </mxCell>
        <mxCell id="zrMExZ_hn0nJ5K-dxhJw-62" value="" style="group;fontSize=10;" vertex="1" connectable="0" parent="1">
          <mxGeometry x="-117.16184014869884" y="328.91908794788276" width="87.95724907063199" height="103.51495114006515" as="geometry" />
        </mxCell>
        <mxCell id="zrMExZ_hn0nJ5K-dxhJw-36" value="" style="image;aspect=fixed;html=1;points=[];align=center;fontSize=10;image=img/lib/azure2/databases/Azure_Database_MySQL_Server.svg;rounded=0;labelBackgroundColor=none;" vertex="1" parent="zrMExZ_hn0nJ5K-dxhJw-62">
          <mxGeometry x="3.585092936802989" width="76.62666658378133" height="102.16184847457282" as="geometry" />
        </mxCell>
        <mxCell id="zrMExZ_hn0nJ5K-dxhJw-37" value="Secondary R/O" style="text;html=1;align=center;verticalAlign=middle;whiteSpace=wrap;rounded=0;fontColor=#FFFFFF;fontSize=10;" vertex="1" parent="zrMExZ_hn0nJ5K-dxhJw-62">
          <mxGeometry y="67.41205211726384" width="87.95724907063199" height="32.100977198697066" as="geometry" />
        </mxCell>
        <mxCell id="zrMExZ_hn0nJ5K-dxhJw-63" value="" style="group;fontSize=10;" vertex="1" connectable="0" parent="1">
          <mxGeometry x="-18.3157063197026" y="328.91908794788276" width="87.95724907063199" height="103.51495114006515" as="geometry" />
        </mxCell>
        <mxCell id="zrMExZ_hn0nJ5K-dxhJw-64" value="" style="image;aspect=fixed;html=1;points=[];align=center;fontSize=10;image=img/lib/azure2/databases/Azure_Database_MySQL_Server.svg;rounded=0;labelBackgroundColor=none;" vertex="1" parent="zrMExZ_hn0nJ5K-dxhJw-63">
          <mxGeometry x="3.585092936802989" width="76.62666658378133" height="102.16184847457282" as="geometry" />
        </mxCell>
        <mxCell id="zrMExZ_hn0nJ5K-dxhJw-65" value="Secondary R/O" style="text;html=1;align=center;verticalAlign=middle;whiteSpace=wrap;rounded=0;fontColor=#FFFFFF;fontSize=10;" vertex="1" parent="zrMExZ_hn0nJ5K-dxhJw-63">
          <mxGeometry y="67.41205211726384" width="87.95724907063199" height="32.100977198697066" as="geometry" />
        </mxCell>
        <mxCell id="zrMExZ_hn0nJ5K-dxhJw-66" value="" style="group;fontSize=10;" vertex="1" connectable="0" parent="1">
          <mxGeometry x="83.16914498141273" y="328.91908794788276" width="87.95724907063199" height="103.51495114006515" as="geometry" />
        </mxCell>
        <mxCell id="zrMExZ_hn0nJ5K-dxhJw-67" value="" style="image;aspect=fixed;html=1;points=[];align=center;fontSize=10;image=img/lib/azure2/databases/Azure_Database_MySQL_Server.svg;rounded=0;labelBackgroundColor=none;" vertex="1" parent="zrMExZ_hn0nJ5K-dxhJw-66">
          <mxGeometry x="3.585092936802989" width="76.62666658378133" height="102.16184847457282" as="geometry" />
        </mxCell>
        <mxCell id="zrMExZ_hn0nJ5K-dxhJw-68" value="Secondary R/O" style="text;html=1;align=center;verticalAlign=middle;whiteSpace=wrap;rounded=0;fontColor=#FFFFFF;fontSize=10;" vertex="1" parent="zrMExZ_hn0nJ5K-dxhJw-66">
          <mxGeometry y="67.41205211726384" width="87.95724907063199" height="32.100977198697066" as="geometry" />
        </mxCell>
        <mxCell id="zrMExZ_hn0nJ5K-dxhJw-69" value="" style="endArrow=none;dashed=1;html=1;dashPattern=1 3;strokeWidth=2;rounded=0;fontSize=10;" edge="1" parent="1">
          <mxGeometry width="50" height="50" relative="1" as="geometry">
            <mxPoint x="177.8066914498142" y="372.39451140065137" as="sourcePoint" />
            <mxPoint x="201.1877323420075" y="372.39451140065137" as="targetPoint" />
          </mxGeometry>
        </mxCell>
        <mxCell id="zrMExZ_hn0nJ5K-dxhJw-71" style="edgeStyle=orthogonalEdgeStyle;rounded=0;orthogonalLoop=1;jettySize=auto;html=1;entryX=0.511;entryY=-0.002;entryDx=0;entryDy=0;entryPerimeter=0;fontSize=10;" edge="1" parent="1" source="zrMExZ_hn0nJ5K-dxhJw-34" target="zrMExZ_hn0nJ5K-dxhJw-64">
          <mxGeometry relative="1" as="geometry" />
        </mxCell>
        <mxCell id="zrMExZ_hn0nJ5K-dxhJw-80" style="edgeStyle=orthogonalEdgeStyle;rounded=0;orthogonalLoop=1;jettySize=auto;html=1;entryX=0.499;entryY=-0.004;entryDx=0;entryDy=0;entryPerimeter=0;exitX=0.5;exitY=0.992;exitDx=0;exitDy=0;exitPerimeter=0;fontSize=10;" edge="1" parent="1" source="zrMExZ_hn0nJ5K-dxhJw-34" target="zrMExZ_hn0nJ5K-dxhJw-67">
          <mxGeometry relative="1" as="geometry" />
        </mxCell>
        <mxCell id="zrMExZ_hn0nJ5K-dxhJw-81" value="Group Replication" style="text;html=1;align=center;verticalAlign=middle;whiteSpace=wrap;rounded=0;fontSize=10;" vertex="1" parent="1">
          <mxGeometry x="-32.24459107806687" y="281.0244299674267" width="132.4925650557621" height="32.100977198697066" as="geometry" />
        </mxCell>
        <mxCell id="zrMExZ_hn0nJ5K-dxhJw-93" value="MySQL Admin Requests" style="text;html=1;align=center;verticalAlign=middle;whiteSpace=wrap;rounded=0;fontSize=10;" vertex="1" parent="1">
          <mxGeometry x="-239.9982156133829" y="178.00136807817591" width="66.80297397769519" height="32.100977198697066" as="geometry" />
        </mxCell>
        <mxCell id="zrMExZ_hn0nJ5K-dxhJw-95" value="MySQL Admin Requests" style="text;html=1;align=center;verticalAlign=middle;whiteSpace=wrap;rounded=0;fontSize=10;" vertex="1" parent="1">
          <mxGeometry x="230.13524163568783" y="180.4413680781759" width="66.80297397769519" height="32.100977198697066" as="geometry" />
        </mxCell>
        <mxCell id="zrMExZ_hn0nJ5K-dxhJw-97" style="edgeStyle=orthogonalEdgeStyle;rounded=0;orthogonalLoop=1;jettySize=auto;html=1;entryX=1.057;entryY=0.489;entryDx=0;entryDy=0;entryPerimeter=0;dashed=1;" edge="1" parent="1" target="zrMExZ_hn0nJ5K-dxhJw-31">
          <mxGeometry relative="1" as="geometry">
            <mxPoint x="202.30111524163578" y="129.07980456026064" as="sourcePoint" />
            <Array as="points">
              <mxPoint x="202.30111524163578" y="129.07980456026064" />
              <mxPoint x="173.3531598513012" y="129.07980456026064" />
            </Array>
          </mxGeometry>
        </mxCell>
        <mxCell id="zrMExZ_hn0nJ5K-dxhJw-98" value="Router&lt;div&gt;Admin Requests&lt;/div&gt;" style="text;html=1;align=center;verticalAlign=middle;whiteSpace=wrap;rounded=0;fontSize=10;" vertex="1" parent="1">
          <mxGeometry x="145.03983271375478" y="92.69869706840387" width="66.80297397769519" height="32.100977198697066" as="geometry" />
        </mxCell>
        <mxCell id="zrMExZ_hn0nJ5K-dxhJw-99" value="High Availability Cluster" style="text;html=1;align=center;verticalAlign=middle;whiteSpace=wrap;rounded=0;fontSize=10;fontStyle=1" vertex="1" parent="1">
          <mxGeometry x="-54.13323420074346" y="427.6188925081433" width="166.61775092936804" height="36.38110749185668" as="geometry" />
        </mxCell>
        <mxCell id="zrMExZ_hn0nJ5K-dxhJw-100" style="edgeStyle=orthogonalEdgeStyle;rounded=0;orthogonalLoop=1;jettySize=auto;html=1;entryX=-0.042;entryY=0.499;entryDx=0;entryDy=0;entryPerimeter=0;" edge="1" parent="1" target="zrMExZ_hn0nJ5K-dxhJw-30">
          <mxGeometry relative="1" as="geometry">
            <mxPoint x="-145.07434944237917" y="130.14983713355053" as="sourcePoint" />
            <Array as="points">
              <mxPoint x="-115.01301115241631" y="130.14983713355053" />
            </Array>
          </mxGeometry>
        </mxCell>
        <mxCell id="zrMExZ_hn0nJ5K-dxhJw-102" value="" style="rounded=1;whiteSpace=wrap;html=1;fillColor=none;dashed=1;dashPattern=8 8;" vertex="1" parent="1">
          <mxGeometry x="-272" y="83.07" width="244" height="88.81" as="geometry" />
        </mxCell>
        <mxCell id="zrMExZ_hn0nJ5K-dxhJw-101" value="Router&lt;div&gt;Admin Requests&lt;/div&gt;" style="text;html=1;align=center;verticalAlign=middle;whiteSpace=wrap;rounded=0;fontSize=10;" vertex="1" parent="1">
          <mxGeometry x="-155.01685873605948" y="92.69869706840387" width="66.80297397769519" height="32.100977198697066" as="geometry" />
        </mxCell>
        <mxCell id="zrMExZ_hn0nJ5K-dxhJw-103" value="Primary Management Node" style="text;html=1;align=left;verticalAlign=middle;whiteSpace=wrap;rounded=0;fontSize=10;fontStyle=1" vertex="1" parent="1">
          <mxGeometry x="-268.6598513011152" y="92.69869706840387" width="55.66914498141265" height="32.100977198697066" as="geometry" />
        </mxCell>
        <mxCell id="zrMExZ_hn0nJ5K-dxhJw-104" value="" style="rounded=1;whiteSpace=wrap;html=1;fillColor=none;dashed=1;dashPattern=8 8;" vertex="1" parent="1">
          <mxGeometry x="76.48884758364312" y="83.06840390879478" width="250.51115241635694" height="88.81270358306189" as="geometry" />
        </mxCell>
        <mxCell id="zrMExZ_hn0nJ5K-dxhJw-105" value="Secondary&lt;div&gt;Management&amp;nbsp; Node&lt;/div&gt;" style="text;html=1;align=right;verticalAlign=middle;whiteSpace=wrap;rounded=0;fontSize=10;fontStyle=1" vertex="1" parent="1">
          <mxGeometry x="266" y="92.7" width="61" height="32.1" as="geometry" />
        </mxCell>
        <mxCell id="zrMExZ_hn0nJ5K-dxhJw-106" value="" style="shadow=0;dashed=0;html=1;labelPosition=center;verticalLabelPosition=bottom;verticalAlign=top;align=center;outlineConnect=0;shape=mxgraph.veeam.portal_admin;fontStyle=1;strokeWidth=1.5;" vertex="1" parent="1">
          <mxGeometry x="-260.3094795539034" y="0.675895765472319" width="38.96840148698886" height="39.59120521172638" as="geometry" />
        </mxCell>
        <mxCell id="zrMExZ_hn0nJ5K-dxhJw-107" style="edgeStyle=orthogonalEdgeStyle;rounded=0;orthogonalLoop=1;jettySize=auto;html=1;" edge="1" parent="1" source="zrMExZ_hn0nJ5K-dxhJw-106">
          <mxGeometry relative="1" as="geometry">
            <mxPoint x="-168.45539033457248" y="107.6791530944626" as="targetPoint" />
          </mxGeometry>
        </mxCell>
        <mxCell id="zrMExZ_hn0nJ5K-dxhJw-108" value="Remote Command Execution" style="text;html=1;align=center;verticalAlign=middle;whiteSpace=wrap;rounded=0;fontSize=10;" vertex="1" parent="1">
          <mxGeometry x="-225.23791821561338" y="-15.374592833876221" width="66.80297397769519" height="32.100977198697066" as="geometry" />
        </mxCell>
        <mxCell id="zrMExZ_hn0nJ5K-dxhJw-112" style="edgeStyle=orthogonalEdgeStyle;rounded=0;orthogonalLoop=1;jettySize=auto;html=1;exitX=0.25;exitY=1;exitDx=0;exitDy=0;entryX=0.357;entryY=-0.013;entryDx=0;entryDy=0;entryPerimeter=0;" edge="1" parent="1" source="zrMExZ_hn0nJ5K-dxhJw-1" target="zrMExZ_hn0nJ5K-dxhJw-11">
          <mxGeometry relative="1" as="geometry" />
        </mxCell>
      </root>
    </mxGraphModel>
  </diagram>
</mxfile>
